<?xml version="1.0" encoding="UTF-8"?> <svg xmlns="http://www.w3.org/2000/svg" width="105" height="29" viewBox="0 0 105 29" fill="none"><g clip-path="url(#clip0_2839_102057)"><path d="M15.5927 0.600891L10.4939 9.43377L15.5927 18.2672L20.692 9.43377L15.5927 0.600891ZM25.7886 18.2672L30.889 27.0968H20.692L15.5927 18.2672H25.7886ZM5.39511 18.2672L0.296875 27.0968H10.4939L15.5927 18.2672H5.39511Z" fill="#22281E"></path><path d="M89.166 15.2853C87.0049 15.2853 85.7487 14.0059 85.7487 12.0908H87.0809C87.0809 13.2439 87.7776 14.0409 89.166 14.0409C90.5215 14.0409 91.2673 13.4188 91.2673 12.3379C91.2673 11.3893 90.8577 11.0067 89.0678 10.6015C86.8279 10.0953 85.9041 9.27133 85.9041 7.55375C85.9041 5.75631 87.3151 4.78394 89.173 4.78394C91.3099 4.78394 92.3136 6.01047 92.3136 7.53757H90.9867C90.9867 6.80208 90.5399 5.98619 89.1638 5.98619C88.0879 5.98619 87.266 6.40115 87.266 7.49763C87.266 8.58495 87.94 8.98264 89.7542 9.41757C91.7901 9.90484 92.6573 10.7099 92.6573 12.2964C92.6573 14.2784 91.257 15.2853 89.166 15.2853V15.2853ZM59.6704 15.2853C57.5092 15.2853 56.2525 14.0059 56.2525 12.0908H57.5853C57.5853 13.2439 58.282 14.0409 59.6704 14.0409C61.0253 14.0409 61.7711 13.4188 61.7711 12.3379C61.7711 11.3893 61.3615 11.0067 59.5716 10.6015C57.3322 10.0953 56.4084 9.27133 56.4084 7.55375C56.4084 5.75631 57.8195 4.78394 59.6774 4.78394C61.8137 4.78394 62.8179 6.01047 62.8179 7.53757H61.491C61.491 6.80208 61.0442 5.98619 59.6677 5.98619C58.5922 5.98619 57.7704 6.40115 57.7704 7.49763C57.7704 8.58495 58.4444 8.98264 60.258 9.41757C62.294 9.90484 63.1617 10.7099 63.1617 12.2964C63.1617 14.2784 61.7608 15.2853 59.6704 15.2853V15.2853ZM52.9371 6.21768V15.0533H51.5606V6.21768H48.7978V5.01705H55.6999V6.21768H52.9371ZM68.1644 15.3905C65.9719 15.3905 64.6477 13.9336 64.6477 11.9057V5.01705H66.0086V11.8706C66.0086 13.3276 66.8488 14.1456 68.1638 14.1456C69.4643 14.1456 70.3336 13.3276 70.3336 11.8706V5.01705H71.694V11.9057C71.6945 13.9336 70.3498 15.3905 68.1644 15.3905V15.3905ZM77.7705 15.0533H73.8778V5.01705H77.6156C79.4762 5.01705 80.6461 6.07414 80.6461 7.76582C80.6461 8.85152 79.9694 9.6264 79.2928 9.89404C80.0682 10.2043 80.801 10.9511 80.801 12.2203C80.801 14.0668 79.5469 15.0533 77.7705 15.0533ZM77.661 6.21768H75.2279V9.34364H77.661C78.6334 9.34364 79.2955 8.75277 79.2955 7.82248C79.2955 6.89219 78.6334 6.21768 77.661 6.21768V6.21768ZM77.8018 10.5443H75.2279V13.8532H77.8018C78.8589 13.8532 79.4514 13.0378 79.4514 12.1502C79.4514 11.2625 78.8589 10.5443 77.8018 10.5443ZM82.7042 15.0533V5.01705H84.0807V15.0533H82.7042ZM46.1456 15.0533V5.01705H47.5221V15.0533H46.1456ZM42.5156 15.0533V8.01026L40.1834 13.2353H39.2224L36.8335 8.01026V15.0533H35.478V5.01705H36.7499L39.7026 11.5328L42.5993 5.01705H43.8706V15.0533H42.5156ZM99.6701 15.0533V10.5864H95.5965V15.0533H94.2405V5.01705H95.5965V9.38573H99.6701V5.01705H101.026V15.0533H99.6701ZM103.295 15.0533V5.01705H104.672V15.0533H103.295ZM68.2421 27.0968V20.0538L65.9093 25.2789H64.9488L62.56 20.0538V27.0974H61.2045V17.0611H62.4763L65.4291 23.5764L68.3257 17.0611H69.597V27.0974H68.2421V27.0968ZM71.8677 27.0968V17.0611H73.2443V27.0974H71.8677V27.0968ZM49.8047 27.0968V22.6299H45.7312V27.0968H44.3751V17.0611H45.7312V21.4298H49.8047V17.0611H51.1607V27.0974H49.8047V27.0968ZM53.4303 27.0968V17.0611H59.468V18.2618H54.7853V21.4433H59.1248V22.6299H54.7853V25.8967H59.468V27.0974H53.4303V27.0968ZM92.2175 27.0968V17.0611H93.594V25.8967H98.4916V27.0974H92.2175V27.0968ZM89.7364 27.0968H91.1485L87.5634 17.0606H86.3994L82.8143 27.0968H84.2264L84.9452 24.9556H89.0133L89.7364 27.0968ZM85.3251 23.8262L86.9752 18.9136L88.6323 23.8262H85.3251ZM82.3534 20.0209C82.3097 19.3194 82.048 18.4798 81.4458 17.8916C80.76 17.2219 79.8421 16.8286 78.7963 16.8286C77.75 16.8286 76.8321 17.2219 76.1468 17.8916C75.1383 18.8769 75.1432 20.1029 75.1432 22.0784C75.1432 24.054 75.1383 25.2805 76.1468 26.2653C76.8327 26.9349 77.75 27.3288 78.7963 27.3288C79.8421 27.3288 80.7605 26.9355 81.4458 26.2653C82.0475 25.6771 82.2941 24.893 82.355 24.1344L80.9558 24.1349C80.9115 24.6166 80.711 25.0705 80.3849 25.4278C79.9953 25.8455 79.4681 26.085 78.7963 26.085C78.1245 26.085 77.5968 25.846 77.2072 25.4278C76.6735 24.8553 76.5434 24.2525 76.5434 22.079C76.5434 19.906 76.6735 19.3021 77.2072 18.7302C77.5973 18.3125 78.1245 18.0729 78.7963 18.0729C79.4681 18.0729 79.9959 18.312 80.3849 18.7302C80.6893 19.0561 80.8905 19.477 80.9553 20.0225L82.3534 20.0209ZM39.1312 27.3283H39.1307H39.1312ZM39.1307 16.8286H39.1312H39.1307ZM42.6883 20.0209C42.6446 19.3194 42.3823 18.4798 41.7801 17.8916C41.0943 17.2219 40.177 16.8286 39.1307 16.8286C38.0843 16.8286 37.167 17.2219 36.4812 17.8916C35.4732 18.8769 35.478 20.1029 35.478 22.0784C35.478 24.054 35.4732 25.2805 36.4812 26.2653C37.167 26.9349 38.0843 27.3288 39.1307 27.3288C40.177 27.3288 41.0948 26.9355 41.7801 26.2653C42.3823 25.6771 42.6289 24.893 42.6894 24.1344L41.2902 24.1349C41.246 24.6165 41.0457 25.0705 40.7198 25.4278C40.3297 25.8455 39.8025 26.085 39.1307 26.085H39.1312H39.1307C38.4588 26.085 37.9311 25.846 37.542 25.4278C37.0078 24.8553 36.8778 24.2525 36.8778 22.079C36.8778 19.906 37.0078 19.3021 37.542 18.7302C37.9316 18.3125 38.4588 18.0729 39.1307 18.0729H39.1312H39.1307C39.8025 18.0729 40.3302 18.312 40.7198 18.7302C41.0236 19.0561 41.2249 19.477 41.2902 20.0225L42.6883 20.0209Z" fill="#22281E"></path></g><defs><clipPath id="clip0_2839_102057"><rect width="104.909" height="28.6116" fill="white" transform="translate(0 0.286194)"></rect></clipPath></defs></svg> 