<?xml version="1.0" encoding="UTF-8"?> <svg xmlns="http://www.w3.org/2000/svg" width="140" height="25" viewBox="0 0 140 25" fill="none"><g clip-path="url(#clip0_2839_102047)"><path d="M2.88808 19.9549C2.37485 19.956 1.87053 19.8209 1.42662 19.5633C0.982719 19.3057 0.615149 18.9349 0.361464 18.4888C0.111661 18.0458 -0.0129217 17.5432 0.0010598 17.0348C0.0150413 16.5264 0.167061 16.0314 0.440834 15.6028L5.64398 7.43207C5.91029 6.99294 6.28838 6.63237 6.73964 6.38718C7.1909 6.14199 7.69915 6.02097 8.21249 6.03648C8.72543 6.04877 9.2259 6.19713 9.66268 6.46636C10.0995 6.73559 10.4569 7.11604 10.6983 7.56876C11.1834 8.48593 11.1227 9.58939 10.5418 10.4503L5.34194 18.621C5.07825 19.0319 4.7151 19.3696 4.28614 19.6028C3.85718 19.836 3.37631 19.9571 2.88808 19.9549V19.9549Z" fill="#22281E"></path><path d="M11.813 19.9547C10.7635 19.9547 9.79788 19.3936 9.29079 18.4918C9.04155 18.05 8.91726 17.5487 8.93124 17.0417C8.94522 16.5346 9.09695 16.0409 9.37016 15.6136L14.5634 7.4616C14.8258 7.01629 15.2025 6.6493 15.6545 6.39867C16.1066 6.14804 16.6174 6.0229 17.1341 6.03624C18.1924 6.05939 19.1514 6.65136 19.6365 7.57735C20.1182 8.50333 20.0476 9.61341 19.4491 10.4721L14.2569 18.6241C13.9941 19.0333 13.6324 19.3696 13.2053 19.6022C12.7781 19.8347 12.2993 19.9559 11.813 19.9547V19.9547Z" fill="#22281E"></path><path d="M20.5381 20.0231C22.0175 20.0231 23.2169 18.8489 23.2169 17.4005C23.2169 15.9522 22.0175 14.778 20.5381 14.778C19.0587 14.778 17.8594 15.9522 17.8594 17.4005C17.8594 18.8489 19.0587 20.0231 20.5381 20.0231Z" fill="#22281E"></path><path d="M136.91 14.9301C137.719 14.9301 138.203 15.5055 138.203 16.448V19.678H139.302V16.3742C139.302 14.7713 138.547 13.8421 137.127 13.8421C136.572 13.8421 135.69 13.9942 135.164 15.0161C135.042 14.7147 134.84 14.452 134.581 14.2559C134.321 14.0599 134.013 13.9378 133.69 13.9027C133.486 13.8654 133.279 13.8532 133.073 13.8663C132.621 13.9027 131.816 14.1838 131.515 14.821V13.9644H130.415V19.678H131.515V16.5947C131.515 15.3953 132.3 14.9301 133.086 14.9301C133.822 14.9301 134.306 15.4934 134.306 16.4359V19.678H135.4V16.5947C135.4 15.64 135.973 14.9191 136.91 14.9301ZM126.377 18.7233C126.88 18.7343 127.365 18.5337 127.716 18.1699C128.069 17.8062 128.256 17.3112 128.238 16.803C128.238 15.6521 127.391 14.9301 126.377 14.9301C125.362 14.9301 124.516 15.6521 124.516 16.803C124.496 17.3101 124.684 17.8039 125.034 18.1666C125.385 18.5304 125.868 18.7321 126.368 18.7233H126.377V18.7233ZM126.377 19.7948C124.77 19.7948 123.428 18.6076 123.428 16.7964C123.428 14.9852 124.77 13.8354 126.377 13.8354C127.984 13.8354 129.337 14.9852 129.337 16.7964C129.337 18.6076 127.976 19.8003 126.369 19.8003L126.377 19.7948ZM117.767 16.7964L117.756 16.803C117.756 14.9918 119.133 13.8421 120.752 13.8354C121.158 13.8276 121.562 13.9051 121.936 14.0631C122.311 14.2211 122.648 14.456 122.927 14.7526L122.093 15.4625C121.916 15.2887 121.706 15.1517 121.476 15.0593C121.246 14.967 121 14.9212 120.752 14.9246C119.737 14.9246 118.855 15.6466 118.855 16.7964C118.855 17.5736 119.317 18.2736 120.026 18.5712C120.735 18.8688 121.551 18.7035 122.093 18.1545L122.939 18.8644C122.66 19.1641 122.321 19.4017 121.944 19.562C121.567 19.7223 121.161 19.8016 120.752 19.7948C119.145 19.7948 117.767 18.6076 117.767 16.7964ZM114.248 18.5811C114.246 18.4812 114.265 18.3821 114.302 18.2894C114.339 18.1966 114.394 18.1121 114.464 18.0407C114.534 17.9692 114.617 17.9122 114.709 17.8729C114.801 17.8336 114.9 17.8128 114.999 17.8117C115.099 17.8128 115.198 17.8336 115.29 17.8729C115.382 17.9122 115.465 17.9692 115.535 18.0407C115.605 18.1121 115.66 18.1966 115.697 18.2894C115.734 18.3821 115.752 18.4812 115.751 18.5811C115.741 18.7746 115.658 18.957 115.518 19.0912C115.379 19.2253 115.193 19.3012 114.999 19.3032C114.806 19.3012 114.62 19.2253 114.48 19.0912C114.341 18.957 114.257 18.7746 114.248 18.5811Z" fill="#22281E"></path><path fill-rule="evenodd" clip-rule="evenodd" d="M117.255 6.70094H113.34L110.597 13.7748L107.867 6.70094H103.953L108.711 17.8789L105.752 25.2691H109.637L117.255 6.70094V6.70094ZM93.4482 12.9183C93.4482 14.7041 95.0091 15.8792 96.5425 15.8792C98.0494 15.8792 99.5299 14.7857 99.5299 12.9172C99.5299 11.0487 98.0494 9.95401 96.5425 9.95401C95.0091 9.95401 93.4482 11.1302 93.4482 12.9172V12.9183ZM99.5299 19.1598V17.7455C98.7362 18.9471 96.8842 19.4013 95.934 19.4013C92.7878 19.4013 89.6406 16.9209 89.6406 12.9172C89.6406 8.91448 92.7867 6.43416 95.934 6.43416C96.7266 6.43416 98.5786 6.69873 99.5299 8.08771V6.70535H103.179V19.162L99.5299 19.1609V19.1598ZM88.6022 19.1598H84.9534V17.6121C84.3437 18.7586 82.8655 19.4266 81.331 19.4266C78.1573 19.4266 75.354 16.8923 75.354 12.9679C75.354 8.9696 78.1573 6.43196 81.331 6.43196C82.8633 6.43196 84.3459 7.07133 84.9534 8.21889V-0.0852051H88.6022V19.1598ZM84.874 12.8896C84.874 11.0222 83.5258 9.92755 82.0189 9.92755C80.4579 9.92755 79.1615 11.1016 79.1615 12.8896C79.1615 14.735 80.4579 15.9035 82.0178 15.9035C83.5533 15.9057 84.874 14.6776 84.874 12.8896V12.8896ZM66.3322 12.5677C66.3322 10.6738 67.3111 10.0334 68.6064 10.0334C69.8488 10.0334 70.7483 10.8601 70.7483 12.5137V19.1576H74.4236V11.7145C74.4236 8.16708 72.6774 6.43196 69.9006 6.43196C68.4466 6.43196 66.9926 7.25873 66.3311 8.51322V6.70094H62.6581V19.1576H66.3322V12.5677V12.5677ZM55.1951 19.3715C51.705 19.3715 48.7937 16.8107 48.7937 12.8885C48.7937 8.96409 51.7017 6.42865 55.1951 6.42865C58.6885 6.42865 61.6219 8.96409 61.6219 12.8885C61.6219 16.8129 58.6852 19.3726 55.1951 19.3726V19.3715V19.3715ZM55.1951 15.7447C56.7274 15.7447 57.9984 14.6225 57.9984 12.8896C57.9984 11.2085 56.7285 10.0609 55.1951 10.0609C54.8259 10.0552 54.4593 10.1246 54.1178 10.265C53.7763 10.4055 53.467 10.614 53.2086 10.8778C52.9488 11.143 52.7449 11.4578 52.6091 11.8034C52.4733 12.149 52.4084 12.5184 52.4182 12.8896C52.4193 14.6247 53.6882 15.7447 55.1951 15.7447ZM42.2048 10.0345C43.2885 10.0345 44.2409 10.8888 44.2409 12.5148V19.1598H47.8897V12.0849C47.8897 8.32361 46.0609 6.42976 43.1297 6.42976C42.2589 6.42976 40.6185 6.69432 39.428 8.6433C38.7401 7.20251 37.4184 6.45511 35.465 6.45511C34.7868 6.45166 34.122 6.6436 33.55 7.008C32.978 7.37239 32.523 7.89381 32.2395 8.50991V6.70204H28.562V19.1587H32.2362V12.5677C32.2362 10.6738 33.268 10.0334 34.3781 10.0334C35.4363 10.0334 36.3866 10.8601 36.4141 12.4343V19.1587H40.0894V12.5677C40.0894 10.7565 41.0419 10.0356 42.2048 10.0356V10.0345Z" fill="#22281E"></path></g><defs><clipPath id="clip0_2839_102047"><rect width="140" height="24.252" fill="white" transform="translate(0 0.466003)"></rect></clipPath></defs></svg> 