<?xml version="1.0" encoding="UTF-8"?> <svg xmlns="http://www.w3.org/2000/svg" width="94" height="27" viewBox="0 0 94 27" fill="none"><g clip-path="url(#clip0_2839_102061)"><path d="M10.9892 1.08276V4.31459C5.67805 5.152 1.66943 9.48117 1.66943 15.0697C1.66943 21.2258 6.52922 26.1012 12.8789 26.1012C19.2286 26.1012 24.0896 21.2258 24.0896 15.0697C24.0896 9.48117 20.081 5.152 14.7699 4.31459V1.08276H10.9892ZM89.1412 4.4251V11.6415C88.0641 11.0044 86.7905 10.6677 85.4342 10.6677C81.103 10.6677 77.8384 13.9749 77.8384 18.3556C77.8384 22.7371 81.103 26.0435 85.4342 26.0435C86.7921 26.0435 88.0624 25.6992 89.1412 25.0562V25.7574H93.1491V4.4251H89.1412ZM51.8156 6.24362V10.9538H49.4028V14.5614H51.8156V20.195C51.8156 23.9461 54.2355 25.9293 57.2699 25.9293C58.4728 25.9293 59.7545 25.6285 60.9499 25.0341L60.0192 21.8355C59.31 22.2144 58.6092 22.4077 57.9931 22.4077C56.7047 22.4077 55.7952 21.5485 55.7952 19.7161V14.5614H58.7458L59.7466 10.9538H55.7952V6.24362H51.8156ZM10.9904 8.33228V14.7837H14.7699V8.33228C17.7197 9.09675 19.6802 11.6656 19.6802 15.0697C19.6802 18.9852 16.7516 21.9484 12.8789 21.9484C9.00624 21.9484 6.08003 18.9852 6.08003 15.0697C6.08003 11.6656 8.03976 9.09675 10.9904 8.33228V8.33228ZM42.7598 10.6677C39.6315 10.6677 37.233 12.6222 37.233 15.2208C37.233 17.6182 38.6871 19.093 41.6645 19.7444C43.533 20.1526 44.4912 20.3676 44.4912 21.3836C44.4912 22.0567 43.8833 22.4863 42.9244 22.4863C41.3786 22.4863 39.8745 21.7776 38.887 20.5462L36.6608 23.3949C37.992 25.0052 40.4542 25.987 43.0385 25.987C46.1593 25.987 48.4143 24.0325 48.4143 21.3124C48.4143 18.8211 46.8472 17.1239 44.0122 16.5371C41.9435 16.1079 41.2348 15.9297 41.2348 15.1275C41.2348 14.5407 41.8499 14.1476 42.8089 14.1476C44.0193 14.1476 45.1081 14.5687 46.1316 15.4639L48.0999 12.8227C46.7177 11.4052 44.8713 10.6677 42.7598 10.6677ZM68.9607 10.6677C64.5515 10.6677 61.2299 13.9743 61.2299 18.3482C61.2299 22.7365 64.6302 26.0447 69.14 26.0447C71.674 26.0447 73.9653 24.9057 75.3249 23.0867L72.7549 20.5535C71.982 21.6491 70.8651 22.4077 69.14 22.4077C67.3403 22.4077 65.9042 21.2934 65.444 19.5725H76.0039C76.0542 19.1793 76.1046 18.6568 76.1046 18.1346C76.1046 13.94 73.1486 10.6677 68.9607 10.6677V10.6677ZM35.1665 10.8949C33.6444 10.9544 31.8544 11.4683 30.5041 12.5157V10.9538H26.4951V25.7574H30.5041V16.6476C31.5855 15.5193 34.0226 14.9394 35.8013 14.9126V10.8973C35.5969 10.8875 35.3839 10.8864 35.1665 10.8948V10.8949ZM68.9607 14.1108C70.5173 14.1108 71.6814 15.1296 72.0955 16.7164H65.53C66.0388 15.1245 67.3102 14.1108 68.9607 14.1108V14.1108ZM85.9622 14.333C87.3352 14.3274 88.4706 14.9133 89.1412 15.7046V20.9956C88.4689 21.7928 87.3294 22.3853 85.9622 22.3794C83.6645 22.3719 81.9966 20.6398 81.9899 18.3556C81.9824 16.0722 83.6503 14.3406 85.9622 14.333Z" fill="#22281E"></path></g><defs><clipPath id="clip0_2839_102061"><rect width="93" height="26.5195" fill="white" transform="translate(0.90918 0.332214)"></rect></clipPath></defs></svg> 