<?xml version="1.0" encoding="UTF-8"?> <svg xmlns="http://www.w3.org/2000/svg" width="122" height="32" viewBox="0 0 122 32" fill="none"><g clip-path="url(#clip0_184_1637)"><path fill-rule="evenodd" clip-rule="evenodd" d="M110.665 31.9176C110.77 31.9176 111.348 31.8205 111.5 31.7971C114.34 31.3608 116.421 30.1041 117.568 26.6327C118.348 24.2696 121.461 14.691 121.461 14.691H118.157L115.513 23.7353H114.982L112.981 14.691H109.548L112.893 26.5516H114.695C114.695 26.5516 114.623 26.7878 114.569 26.9741C114.184 28.2948 112.137 29.1881 110.241 29.4373L110.665 31.9176ZM78.2206 26.5448V17.3613C78.5743 17.2437 79.4466 17.1018 80.4365 17.1018C80.9554 17.1018 81.7773 17.1409 82.2015 17.1881V14.5098C81.8716 14.4152 80.9787 14.3872 80.1538 14.3872C78.0792 14.3872 76.099 14.9302 75.0617 15.4259V26.5448H78.2206ZM109.521 26.5394L109.634 24.1421C109.509 24.17 109.169 24.2462 108.848 24.2462C107.778 24.2462 107.462 23.5504 107.462 22.5961V9.60107L104.303 11.027V23.2062C104.303 24.951 105.168 26.6934 107.669 26.6934C108.661 26.6934 109.394 26.5635 109.521 26.5394ZM103.027 26.5394L103.139 24.1421C103.015 24.17 102.674 24.2462 102.354 24.2462C101.283 24.2462 100.967 23.5504 100.967 22.5961V9.60107L97.8085 11.027V23.2062C97.8085 24.951 98.6741 26.6934 101.175 26.6934C102.167 26.6934 102.899 26.5635 103.027 26.5394ZM91.6949 26.5448V14.6747L94.8538 14.691V26.5448H91.6949ZM93.2508 13.2862C92.2845 13.2862 91.5538 12.9085 91.5538 11.5395C91.5538 10.2885 92.2138 9.76894 93.2508 9.76894C94.3116 9.76894 94.9955 10.1706 94.9955 11.5159C94.9955 12.8141 94.3587 13.2862 93.2508 13.2862ZM70.3892 19.2973V19.0373C70.3892 17.4324 69.6799 16.7007 67.9515 16.7007C66.1836 16.7007 65.4824 17.6683 65.4353 19.2973H70.3892ZM68.9438 24.2069C70.7204 24.2069 71.8197 23.8153 72.3684 23.6466L72.6749 26.0073C72.214 26.2197 70.7031 26.851 68.7458 26.851C64.4554 26.851 62.2295 24.6489 62.2295 20.4C62.2295 16.1028 64.3582 14.3637 68.0319 14.3637C72.0374 14.3637 73.3125 16.5825 73.3125 20.3357C73.3125 20.7368 73.2886 21.3036 73.2415 21.5162H65.3882C65.3882 23.6583 66.9635 24.2069 68.9438 24.2069ZM54.7215 26.5448V21.3272H55.4727L59.2884 26.5448H62.8245L57.918 19.6523L62.3834 14.691H58.9312L55.3928 18.6831H54.7215V9.60107L51.5626 11.027V26.5448H54.7215ZM87.189 26.6934C88.4458 26.6934 89.2627 26.4987 89.3981 26.4637L89.5394 24.032C89.4308 24.0775 88.8218 24.247 88.4328 24.247C86.9818 24.247 86.5222 23.2141 86.5222 21.8449V17.5032H89.8983V14.691H86.5222V12.1605L83.4001 13.5862V22.7346C83.4001 25.453 84.8176 26.6934 87.189 26.6934ZM46.2788 21.5791C45.7114 21.4888 44.6617 21.3367 43.7918 21.3367C41.7433 21.3367 41.5711 22.1858 41.5711 22.9266C41.5711 24.1283 42.1152 24.5722 43.8739 24.5722C45.0222 24.5722 45.8542 24.3889 46.2788 24.2709V21.5791ZM43.6851 26.8393C39.7021 26.8393 38.5825 25.5897 38.5825 23.0031C38.5825 20.3637 39.7365 19.1851 43.5803 19.1851C44.7893 19.1851 45.921 19.3662 46.2788 19.415V18.6278C46.2788 17.6781 45.7772 16.9839 43.2532 16.9839C41.2472 16.9839 40.114 17.555 39.7192 17.7098L39.4752 15.255C39.9965 15.0492 41.6607 14.3637 44.1501 14.3637C47.8932 14.3637 49.3906 15.9618 49.3906 19.0392V25.9335C48.4947 26.3349 46.1916 26.8393 43.6851 26.8393ZM31.0542 24.2847C33.5113 24.2847 34.2651 22.8881 34.2651 20.6148C34.2651 18.4103 33.477 17.0091 31.0542 17.0091C30.347 17.0091 29.7071 17.1493 28.9528 17.3852V23.9091C29.5007 24.0889 30.2796 24.2847 31.0542 24.2847ZM25.7939 11.027L28.9528 9.60107V14.883C29.778 14.6232 30.4288 14.3637 32.0792 14.3637C35.6576 14.3637 37.3952 16.2717 37.3952 20.615C37.3952 25.7041 35.3998 26.851 30.815 26.851C28.6227 26.851 26.737 26.4732 25.7939 26.0483V11.027Z" fill="#2B2A29"></path><path fill-rule="evenodd" clip-rule="evenodd" d="M14.2334 0.583295C13.408 0.175431 12.1299 0.000244141 10.8977 0.000244141C5.31574 0.000244141 0 3.15116 0 8.45801C0 10.3324 0.594459 12.3365 1.63199 14.132C2.80493 16.1624 4.43149 18.0184 6.37303 19.3377C7.84659 20.339 9.55305 21.0373 11.3161 21.0373C12.7845 21.0373 13.7706 20.6343 14.1121 20.3525C13.9642 20.3761 13.6092 20.4282 13.1707 20.4282C8.53177 20.4282 5.37478 16.2931 4.19236 13.2895C3.73683 12.132 3.39776 10.7411 3.39776 9.36024C3.39776 3.71062 8.44917 0.608244 13.3828 0.608244C13.659 0.608244 13.9371 0.617193 14.2164 0.636719C14.238 0.638075 14.2516 0.624787 14.2516 0.609871C14.2516 0.60038 14.2459 0.590346 14.2334 0.583295ZM15.0909 8.97787C12.6534 8.97787 10.625 10.7954 10.625 13.2162C10.625 15.4606 12.4598 17.5897 15.138 17.5897C15.7571 17.5897 16.3738 17.4516 16.9392 17.1948C17.0362 17.1509 17.1632 17.1091 17.2463 17.0421C17.3149 16.9868 17.3474 16.8897 17.3934 16.8122C18.1081 15.6133 18.9076 12.868 19.0232 11.3299C19.0349 11.172 18.991 11.1148 18.8973 10.9879C18.2644 10.1301 17.0329 8.97787 15.0909 8.97787ZM19.1177 9.16824C19.1177 9.37543 19.1131 9.82289 19.108 10.0268C18.1999 8.42655 16.4347 7.50641 14.608 7.50641C11.9425 7.50641 9.5062 9.84621 9.5062 12.9399C9.5062 15.9818 11.9509 18.1768 14.693 18.1768C15.4437 18.1768 16.1939 18.0116 16.8807 17.6789C16.5861 18.1299 16.2559 18.5589 15.8871 18.9516C15.7219 19.1276 15.5504 19.3494 15.3219 19.4335C15.0616 19.5295 14.5154 19.7478 13.542 19.7478C10.2837 19.7478 8.06677 17.3293 7.02734 15.7738C5.9909 14.2226 5.09583 12.1434 5.09583 9.91943C5.09583 5.48391 8.77903 3.19807 12.8227 3.19807C17.2236 3.19807 19.1177 6.70207 19.1177 9.16824Z" fill="#2B2A29"></path></g><defs><clipPath id="clip0_184_1637"><rect width="121.6" height="32" fill="white"></rect></clipPath></defs></svg> 