<svg width="400" height="300" viewBox="0 0 400 300" fill="none" xmlns="http://www.w3.org/2000/svg">
  <rect width="400" height="300" rx="10" fill="#FFFFFF" fill-opacity="0.8"/>
  <rect x="50" y="30" width="140" height="40" rx="5" fill="#E2E8F0"/>
  <rect x="50" y="90" width="140" height="40" rx="5" fill="#E2E8F0"/>
  <rect x="50" y="150" width="140" height="40" rx="5" fill="#E2E8F0"/>
  <rect x="50" y="210" width="140" height="40" rx="5" fill="#E2E8F0"/>

  <rect x="210" y="30" width="140" height="40" rx="5" fill="#E2E8F0"/>
  <rect x="210" y="90" width="140" height="40" rx="5" fill="#E2E8F0"/>
  <rect x="210" y="150" width="140" height="40" rx="5" fill="#E2E8F0"/>
  <rect x="210" y="210" width="140" height="40" rx="5" fill="#E2E8F0"/>

  <line x1="190" y1="50" x2="210" y2="50" stroke="#00513C" stroke-width="2"/>
  <line x1="190" y1="110" x2="210" y2="110" stroke="#00513C" stroke-width="2"/>
  <line x1="190" y1="170" x2="210" y2="170" stroke="#00513C" stroke-width="2"/>
  <line x1="190" y1="230" x2="210" y2="230" stroke="#00513C" stroke-width="2"/>
</svg>
