<?xml version="1.0" encoding="UTF-8"?> <svg xmlns="http://www.w3.org/2000/svg" width="108" height="32" viewBox="0 0 108 32" fill="none"><path fill-rule="evenodd" clip-rule="evenodd" d="M103.741 29.5902C103.434 29.3342 103.188 29.0693 102.943 28.7556C102.913 28.717 102.9 28.6362 102.98 28.5746L103.433 28.2241C103.499 28.1734 103.591 28.1773 103.651 28.2342C103.799 28.3742 104.058 28.6167 104.092 28.6446C104.34 28.8455 104.611 29.0181 104.898 29.1587C105.282 29.3471 105.696 29.4742 106.12 29.5403C106.195 29.552 106.271 29.5211 106.317 29.461C106.96 28.6122 107.323 27.5411 107.264 26.3836C107.144 24.0425 105.26 22.1129 102.908 21.9295C99.9866 21.7017 97.5671 24.1046 97.7946 27.0067C97.9744 29.2986 99.8459 31.1536 102.153 31.3289C103.247 31.412 104.27 31.1247 105.109 30.5814C105.175 30.539 105.163 30.4412 105.091 30.4108C104.604 30.2043 104.147 29.9284 103.741 29.5902Z" fill="white"></path><path fill-rule="evenodd" clip-rule="evenodd" d="M89.2293 19.1419H89.2286C89.2286 19.1542 89.2293 19.1408 89.2293 19.1529C89.2293 22.5817 87.3451 26.0409 83.1358 26.0409C79.4044 26.0409 76.993 23.3373 76.993 19.1529C76.993 19.1444 76.9934 19.1434 76.9934 19.1347H76.9925C76.9925 19.1408 76.9926 19.1468 76.9928 19.1529H76.992V19.1347H76.9925C76.9923 19.1288 76.992 19.1228 76.992 19.1167C76.992 15.6879 78.8761 12.2287 83.0854 12.2287C86.8169 12.2287 89.2285 14.9324 89.2285 19.1167C89.2285 19.1252 89.2278 19.1334 89.2278 19.1419H89.2286L89.2293 19.1347V19.1419ZM96.1308 0.289142C96.1308 0.268863 96.1287 0.249074 96.1248 0.22994C96.0981 0.0987793 95.9815 0 95.84 0H89.5424C89.3817 0 89.2513 0.129525 89.2513 0.289142V8.72708C89.2513 8.97959 88.9499 9.10912 88.7621 8.93887C85.0601 5.57907 78.9732 5.6574 74.9835 8.4942C70.5819 11.6239 68.9088 17.4746 70.2428 22.5827C71.5136 27.4495 75.7552 31.072 80.7143 31.862C85.8201 32.6755 91.2598 30.7164 94.0969 26.3116C95.475 24.172 96.1305 21.643 96.1305 19.1131C96.1305 19.048 96.1272 18.9843 96.1261 18.9195H96.1308V0.289142Z" fill="white"></path><path fill-rule="evenodd" clip-rule="evenodd" d="M64.7339 8.51624C63.163 7.13725 60.9374 6.37793 58.4671 6.37793C53.5463 6.37793 51.3308 9.04464 50.6198 10.1589C50.4913 10.3605 50.1971 10.3523 50.0723 10.1482C48.6221 7.77654 46.0744 6.37793 43.1484 6.37793C38.9807 6.37793 36.4827 8.96729 35.6229 10.0462C35.4769 10.2292 35.1847 10.1705 35.119 9.94609L34.3549 7.33498C34.319 7.21216 34.2056 7.12761 34.0767 7.12761H29.0968C28.9368 7.12761 28.8071 7.25648 28.8071 7.41544V31.0422C28.8071 31.2011 28.9368 31.33 29.0968 31.33H35.6224C35.7824 31.33 35.9122 31.2011 35.9122 31.0422V17.3553C35.9122 15.0645 37.4537 12.7451 40.4008 12.7451C43.1067 12.7451 44.7877 14.4733 44.7877 17.2551V31.0422C44.7877 31.2011 44.9173 31.33 45.0775 31.33H51.5C51.66 31.33 51.7897 31.2011 51.7897 31.0422V17.3051C51.7897 15.0388 53.3493 12.7451 56.3299 12.7451C59.004 12.7451 60.6653 14.4733 60.6653 17.2551V31.0422C60.6653 31.2011 60.795 31.33 60.955 31.33H67.2251C67.3851 31.33 67.515 31.2011 67.515 31.0422V15.5564C67.515 12.5054 66.5794 10.1364 64.7339 8.51624Z" fill="white"></path><path fill-rule="evenodd" clip-rule="evenodd" d="M14.189 6.36685C11.6859 6.39449 9.20318 7.20582 7.3368 8.89995C7.14996 9.0697 6.84971 8.94067 6.84971 8.68914V0.287834C6.84971 0.128871 6.71999 0 6.55999 0H0.289719C0.129715 0 0 0.128871 0 0.287834V31.0255C0 31.1846 0.129715 31.3135 0.289719 31.3135H6.55999C6.71999 31.3135 6.84971 31.1846 6.84971 31.0255C6.84971 31.0255 6.84971 19.2234 6.85053 19.2234C6.85036 19.2113 6.84971 19.1995 6.84971 19.1874C6.84971 15.7734 8.7258 12.3291 12.9167 12.3291C16.6322 12.3291 19.033 15.0212 19.033 19.1874C19.033 19.1959 19.0325 19.2041 19.034 19.2126V31.0257C19.034 31.1846 19.1636 31.3135 19.3237 31.3135H25.8985C26.0585 31.3135 26.1883 31.1846 26.1883 31.0257C26.1883 31.0257 26.1883 19.2126 26.1866 19.2126C26.1869 19.1874 26.1883 19.1628 26.1883 19.1377C26.1884 12.3039 21.4658 6.32449 14.2519 6.36636C14.2309 6.36652 14.2099 6.36668 14.189 6.36685Z" fill="white"></path></svg> 