<svg width="144" height="26" viewBox="0 0 144 26" fill="none" xmlns="http://www.w3.org/2000/svg">
								<path d="M44.3217 8.54102H40.5605V6.89326H49.8704V8.54102H46.1253V19.0634H44.3217V8.54102Z" fill="currentColor"></path>
								<path d="M54.5326 6.89326H59.6155C62.3361 6.89326 63.8424 8.01266 63.8424 10.1565C63.8424 11.5715 63.2513 12.6282 62.0388 13.0938V13.1709C63.1116 13.4037 63.5003 13.9786 63.5003 14.9422V15.8288C63.5003 17.7255 63.563 18.1911 63.8585 18.9523V19.0616H62.0083C61.7433 18.3147 61.6967 17.772 61.6967 15.8288V15.3774C61.6967 14.3977 61.3385 14.0717 60.0024 14.0717H56.3343V19.0598H54.5308V6.89326H54.5326ZM59.8484 12.4419C61.1845 12.4419 61.9313 11.7273 61.9313 10.3446C61.9313 9.25743 61.1075 8.61983 59.6155 8.61983H56.3361V12.4437H59.8484V12.4419Z" fill="currentColor"></path>
								<path d="M68.8862 14.9744V6.89326H70.6898V14.6323C70.6898 16.7458 71.5603 17.6628 73.6271 17.6628C75.694 17.6628 76.5644 16.7762 76.5644 14.6323V6.89326H78.368V14.9744C78.368 17.8652 76.8134 19.3266 73.6271 19.3266C70.4409 19.3266 68.8862 17.8652 68.8862 14.9744Z" fill="currentColor"></path>
								<path d="M84.0381 6.89326H85.8417V17.3368H92.0118V19.0616H84.0381V6.89326Z" fill="currentColor"></path>
								<path d="M96.8691 6.89326H98.6727V17.3368H104.843V19.0616H96.8691V6.89326Z" fill="currentColor"></path>
								<path d="M109.7 6.89326H111.504V19.0634H109.7V6.89326Z" fill="currentColor"></path>
								<path d="M116.482 12.9703C116.482 9.20908 118.938 6.62999 122.543 6.62999C126.149 6.62999 128.604 9.20908 128.604 12.9703C128.604 16.7314 126.133 19.3267 122.543 19.3267C118.954 19.3267 116.482 16.7476 116.482 12.9703ZM122.543 17.5392C124.983 17.5392 126.647 15.6891 126.647 12.9703C126.647 10.2515 124.983 8.41565 122.543 8.41565C120.104 8.41565 118.426 10.2497 118.426 12.9703C118.426 15.6908 120.088 17.5392 122.543 17.5392Z" fill="currentColor"></path>
								<path d="M133.585 6.89326H135.698L141.526 16.2801H141.603V6.89326H143.407V19.0634H141.277L135.466 9.7231H135.389V19.0634H133.585V6.89326Z" fill="currentColor"></path>
								<path fill-rule="evenodd" clip-rule="evenodd" d="M0 0H24.96V6.93333H0V0ZM8.32 26V12.8267L12.48 8.66667L16.64 12.8267V26H8.32Z" fill="currentColor"></path>
						</svg>
