<?xml version="1.0" encoding="UTF-8"?> <svg xmlns="http://www.w3.org/2000/svg" width="480" height="384" viewBox="0 0 480 384" fill="none"><mask id="path-1-inside-1_3173_4481" fill="white"><path d="M0 8C0 3.58172 3.58172 0 8 0H472C476.418 0 480 3.58172 480 8V64H0V8Z"></path></mask><path d="M0 8C0 3.58172 3.58172 0 8 0H472C476.418 0 480 3.58172 480 8V64H0V8Z" fill="white"></path><path d="M0 0H480H0ZM480 65H0V63H480V65ZM0 64V0V64ZM480 0V64V0Z" fill="#E8E7E5" mask="url(#path-1-inside-1_3173_4481)"></path><rect x="12" y="12" width="456" height="40" rx="4" fill="#EFF2F2" fill-opacity="0.72"></rect><path d="M24.504 36.5L28.914 25.538H30.132L34.542 36.5H33.254L32.022 33.322H27.024L25.792 36.5H24.504ZM27.472 32.188H31.574L29.558 26.98H29.502L27.472 32.188ZM37.3458 30.004C37.6958 29.066 38.5358 28.744 39.3478 28.744H39.8238V29.808H39.4738C38.0038 29.808 37.3458 30.69 37.3458 32.412V36.5H36.2118V28.884H37.2758V30.004H37.3458ZM44.3746 36.738C42.0366 36.738 40.6646 35.156 40.6646 32.72C40.6646 30.27 42.0646 28.646 44.3746 28.646C46.4186 28.646 47.8466 29.99 47.8466 32.454C47.8466 32.678 47.8466 32.818 47.8326 33.098H41.8966C42.0366 34.708 43.0026 35.674 44.3746 35.674C45.6626 35.674 46.5306 34.988 46.6566 33.924H47.8326C47.6226 35.646 46.2926 36.738 44.3746 36.738ZM41.8966 32.09H46.5446C46.5026 30.634 45.6626 29.71 44.3746 29.71C42.9466 29.71 42.0506 30.648 41.8966 32.09ZM55.3436 36.5C54.2796 36.5 53.7336 35.926 53.7336 34.82V29.948H52.4596V28.884H53.7336V26.91H54.8536V28.884H56.5896V29.948H54.8536V34.722C54.8536 35.198 55.0916 35.436 55.5256 35.436H56.6316V36.5H55.3436ZM58.4692 36.5V25.524H59.6032V30.004H59.6732C60.1492 29.206 60.9612 28.646 62.1512 28.646C63.8312 28.646 64.7132 29.556 64.7132 31.306V36.5H63.5792V31.614C63.5792 30.326 63.0332 29.71 61.8852 29.71C60.4432 29.71 59.6032 30.69 59.6032 32.412V36.5H58.4692ZM70.1313 36.738C67.7933 36.738 66.4213 35.156 66.4213 32.72C66.4213 30.27 67.8213 28.646 70.1313 28.646C72.1753 28.646 73.6033 29.99 73.6033 32.454C73.6033 32.678 73.6033 32.818 73.5893 33.098H67.6533C67.7933 34.708 68.7593 35.674 70.1313 35.674C71.4193 35.674 72.2873 34.988 72.4133 33.924H73.5893C73.3793 35.646 72.0493 36.738 70.1313 36.738ZM67.6533 32.09H72.3013C72.2593 30.634 71.4193 29.71 70.1313 29.71C68.7033 29.71 67.8073 30.648 67.6533 32.09ZM76.5825 30.004C76.9325 29.066 77.7725 28.744 78.5845 28.744H79.0605V29.808H78.7105C77.2405 29.808 76.5825 30.69 76.5825 32.412V36.5H75.4485V28.884H76.5125V30.004H76.5825ZM83.6112 36.738C81.2732 36.738 79.9012 35.156 79.9012 32.72C79.9012 30.27 81.3012 28.646 83.6112 28.646C85.6552 28.646 87.0832 29.99 87.0832 32.454C87.0832 32.678 87.0832 32.818 87.0692 33.098H81.1332C81.2732 34.708 82.2392 35.674 83.6112 35.674C84.8992 35.674 85.7672 34.988 85.8932 33.924H87.0692C86.8592 35.646 85.5292 36.738 83.6112 36.738ZM81.1332 32.09H85.7812C85.7392 30.634 84.8992 29.71 83.6112 29.71C82.1832 29.71 81.2872 30.648 81.1332 32.09ZM94.4822 36.738C92.8442 36.738 91.8642 35.996 91.8642 34.582C91.8642 33.21 92.7882 32.538 94.4402 32.258C96.5122 31.908 96.9882 31.824 96.9882 31.012C96.9882 30.2 96.4282 29.71 95.1822 29.71C93.8942 29.71 93.3482 30.158 93.2642 31.026H92.0322C92.1582 29.5 93.2082 28.646 95.1822 28.646C97.0582 28.646 98.1222 29.332 98.1222 31.124V34.708C98.1222 35.24 98.1642 35.352 98.5002 35.352H99.0322V36.5H98.1502C97.5342 36.5 97.0722 36.346 97.0722 35.646V35.604H97.0022C96.4982 36.388 95.6022 36.738 94.4822 36.738ZM93.0822 34.526C93.0822 35.38 93.7402 35.772 94.7202 35.772C95.9662 35.772 96.9882 35.03 96.9882 33.896V32.552C96.3722 32.958 95.8262 33.056 94.6362 33.252C93.6282 33.406 93.0822 33.798 93.0822 34.526ZM100.727 36.5V28.884H101.791V30.004H101.861C102.337 29.206 103.219 28.646 104.409 28.646C106.089 28.646 106.971 29.556 106.971 31.306V36.5H105.837V31.614C105.837 30.326 105.291 29.71 104.143 29.71C102.701 29.71 101.861 30.69 101.861 32.412V36.5H100.727ZM108.81 39.538V38.474H109.65C110.224 38.474 110.364 38.362 110.546 37.9L111.092 36.556L108.096 28.884H109.384L111.652 35.044H111.722L113.878 28.884H115.166L111.484 38.348C111.162 39.188 110.728 39.538 109.888 39.538H108.81ZM123.244 36.738C120.906 36.738 119.534 35.156 119.534 32.72C119.534 30.27 120.934 28.646 123.244 28.646C125.288 28.646 126.716 29.99 126.716 32.454C126.716 32.678 126.716 32.818 126.702 33.098H120.766C120.906 34.708 121.872 35.674 123.244 35.674C124.532 35.674 125.4 34.988 125.526 33.924H126.702C126.492 35.646 125.162 36.738 123.244 36.738ZM120.766 32.09H125.414C125.372 30.634 124.532 29.71 123.244 29.71C121.816 29.71 120.92 30.648 120.766 32.09ZM128.562 36.5V28.884H129.626V30.004H129.696C130.172 29.206 131.054 28.646 131.964 28.646C133.126 28.646 133.91 29.08 134.218 30.144H134.288C134.834 29.206 135.716 28.646 136.626 28.646C138.138 28.646 139.02 29.374 139.02 31.306V36.5H137.886V31.614C137.886 30.144 137.34 29.71 136.36 29.71C135.198 29.71 134.358 30.55 134.358 32.412V36.5H133.224V31.614C133.224 30.144 132.678 29.71 131.698 29.71C130.536 29.71 129.696 30.69 129.696 32.412V36.5H128.562ZM145.009 36.738C143.791 36.738 142.825 36.192 142.377 35.38H142.307V36.5H141.215V25.538H142.349V30.004H142.419C142.867 29.192 143.791 28.646 144.995 28.646C147.067 28.646 148.341 30.186 148.341 32.678C148.341 35.17 147.067 36.738 145.009 36.738ZM142.349 32.678C142.349 34.582 143.245 35.702 144.785 35.702C146.311 35.702 147.123 34.638 147.123 32.678C147.123 30.732 146.311 29.682 144.785 29.682C143.245 29.682 142.349 30.774 142.349 32.678ZM153.452 36.738C151.114 36.738 149.742 35.156 149.742 32.72C149.742 30.27 151.142 28.646 153.452 28.646C155.496 28.646 156.924 29.99 156.924 32.454C156.924 32.678 156.924 32.818 156.91 33.098H150.974C151.114 34.708 152.08 35.674 153.452 35.674C154.74 35.674 155.608 34.988 155.734 33.924H156.91C156.7 35.646 155.37 36.738 153.452 36.738ZM150.974 32.09H155.622C155.58 30.634 154.74 29.71 153.452 29.71C152.024 29.71 151.128 30.648 150.974 32.09ZM161.667 36.738C159.609 36.738 158.335 35.17 158.335 32.678C158.335 30.186 159.609 28.646 161.681 28.646C162.885 28.646 163.809 29.192 164.257 30.004H164.327V25.538H165.461V36.5H164.369V35.38H164.299C163.851 36.192 162.885 36.738 161.667 36.738ZM159.553 32.678C159.553 34.638 160.365 35.702 161.891 35.702C163.431 35.702 164.327 34.582 164.327 32.678C164.327 30.774 163.431 29.682 161.891 29.682C160.365 29.682 159.553 30.732 159.553 32.678ZM170.683 36.738C168.625 36.738 167.351 35.17 167.351 32.678C167.351 30.186 168.625 28.646 170.697 28.646C171.901 28.646 172.825 29.192 173.273 30.004H173.343V25.538H174.477V36.5H173.385V35.38H173.315C172.867 36.192 171.901 36.738 170.683 36.738ZM168.569 32.678C168.569 34.638 169.381 35.702 170.907 35.702C172.447 35.702 173.343 34.582 173.343 32.678C173.343 30.774 172.447 29.682 170.907 29.682C169.381 29.682 168.569 30.732 168.569 32.678ZM180.049 36.738C177.711 36.738 176.339 35.156 176.339 32.72C176.339 30.27 177.739 28.646 180.049 28.646C182.093 28.646 183.521 29.99 183.521 32.454C183.521 32.678 183.521 32.818 183.507 33.098H177.571C177.711 34.708 178.677 35.674 180.049 35.674C181.337 35.674 182.205 34.988 182.331 33.924H183.507C183.297 35.646 181.967 36.738 180.049 36.738ZM177.571 32.09H182.219C182.177 30.634 181.337 29.71 180.049 29.71C178.621 29.71 177.725 30.648 177.571 32.09ZM188.265 36.738C186.207 36.738 184.933 35.17 184.933 32.678C184.933 30.186 186.207 28.646 188.279 28.646C189.483 28.646 190.407 29.192 190.855 30.004H190.925V25.538H192.059V36.5H190.967V35.38H190.897C190.449 36.192 189.483 36.738 188.265 36.738ZM186.151 32.678C186.151 34.638 186.963 35.702 188.489 35.702C190.029 35.702 190.925 34.582 190.925 32.678C190.925 30.774 190.029 29.682 188.489 29.682C186.963 29.682 186.151 30.732 186.151 32.678ZM200.413 36.738C198.453 36.738 197.375 35.912 197.291 34.358H198.481C198.579 35.268 199.181 35.674 200.413 35.674C201.701 35.674 202.359 35.212 202.359 34.358C202.359 33.77 201.981 33.462 201.043 33.266L199.657 32.972C198.215 32.664 197.445 31.936 197.445 30.816C197.445 29.486 198.579 28.646 200.413 28.646C202.275 28.646 203.367 29.514 203.423 31.026H202.247C202.163 30.13 201.561 29.71 200.413 29.71C199.251 29.71 198.593 30.102 198.593 30.816C198.593 31.404 199.027 31.684 200.315 31.964L201.477 32.216C202.863 32.51 203.507 33.168 203.507 34.358C203.507 35.856 202.401 36.738 200.413 36.738ZM208.622 36.738C206.284 36.738 204.912 35.156 204.912 32.72C204.912 30.27 206.312 28.646 208.622 28.646C210.666 28.646 212.094 29.99 212.094 32.454C212.094 32.678 212.094 32.818 212.08 33.098H206.144C206.284 34.708 207.25 35.674 208.622 35.674C209.91 35.674 210.778 34.988 210.904 33.924H212.08C211.87 35.646 210.54 36.738 208.622 36.738ZM206.144 32.09H210.792C210.75 30.634 209.91 29.71 208.622 29.71C207.194 29.71 206.298 30.648 206.144 32.09ZM215.074 30.004C215.424 29.066 216.264 28.744 217.076 28.744H217.552V29.808H217.202C215.732 29.808 215.074 30.69 215.074 32.412V36.5H213.94V28.884H215.004V30.004H215.074ZM221.254 36.5L218.356 28.884H219.588L221.8 35.044H221.856L224.068 28.884H225.3L222.402 36.5H221.254ZM226.75 36.5V28.884H227.884V36.5H226.75ZM226.624 27.288V25.916H228.01V27.288H226.624ZM233.436 36.738C231.14 36.738 229.712 35.156 229.712 32.72C229.712 30.256 231.168 28.646 233.464 28.646C235.27 28.646 236.488 29.612 236.74 31.292H235.536C235.27 30.256 234.486 29.71 233.422 29.71C231.882 29.71 230.93 30.872 230.93 32.65C230.93 34.47 231.938 35.674 233.534 35.674C234.696 35.674 235.536 35.016 235.662 33.924H236.866C236.656 35.66 235.326 36.738 233.436 36.738ZM241.919 36.738C239.581 36.738 238.209 35.156 238.209 32.72C238.209 30.27 239.609 28.646 241.919 28.646C243.963 28.646 245.391 29.99 245.391 32.454C245.391 32.678 245.391 32.818 245.377 33.098H239.441C239.581 34.708 240.547 35.674 241.919 35.674C243.207 35.674 244.075 34.988 244.201 33.924H245.377C245.167 35.646 243.837 36.738 241.919 36.738ZM239.441 32.09H244.089C244.047 30.634 243.207 29.71 241.919 29.71C240.491 29.71 239.595 30.648 239.441 32.09ZM253.868 36.738C251.572 36.738 250.144 35.156 250.144 32.72C250.144 30.256 251.6 28.646 253.896 28.646C255.702 28.646 256.92 29.612 257.172 31.292H255.968C255.702 30.256 254.918 29.71 253.854 29.71C252.314 29.71 251.362 30.872 251.362 32.65C251.362 34.47 252.37 35.674 253.966 35.674C255.128 35.674 255.968 35.016 256.094 33.924H257.298C257.088 35.66 255.758 36.738 253.868 36.738ZM262.365 36.738C260.209 36.738 258.627 35.086 258.627 32.692C258.627 30.298 260.209 28.646 262.365 28.646C264.507 28.646 266.103 30.284 266.103 32.692C266.103 35.1 264.507 36.738 262.365 36.738ZM259.845 32.692C259.845 34.554 260.867 35.674 262.365 35.674C263.877 35.674 264.885 34.568 264.885 32.692C264.885 30.816 263.877 29.71 262.365 29.71C260.867 29.71 259.845 30.83 259.845 32.692ZM267.928 36.5V28.884H268.992V30.004H269.062C269.538 29.206 270.42 28.646 271.61 28.646C273.29 28.646 274.172 29.556 274.172 31.306V36.5H273.038V31.614C273.038 30.326 272.492 29.71 271.344 29.71C269.902 29.71 269.062 30.69 269.062 32.412V36.5H267.928ZM278.474 36.5C277.41 36.5 276.864 35.926 276.864 34.82V29.948H275.59V28.884H276.864V26.91H277.984V28.884H279.72V29.948H277.984V34.722C277.984 35.198 278.222 35.436 278.656 35.436H279.762V36.5H278.474ZM282.706 30.004C283.056 29.066 283.896 28.744 284.708 28.744H285.184V29.808H284.834C283.364 29.808 282.706 30.69 282.706 32.412V36.5H281.572V28.884H282.636V30.004H282.706ZM288.698 36.738C287.06 36.738 286.08 35.996 286.08 34.582C286.08 33.21 287.004 32.538 288.656 32.258C290.728 31.908 291.204 31.824 291.204 31.012C291.204 30.2 290.644 29.71 289.398 29.71C288.11 29.71 287.564 30.158 287.48 31.026H286.248C286.374 29.5 287.424 28.646 289.398 28.646C291.274 28.646 292.338 29.332 292.338 31.124V34.708C292.338 35.24 292.38 35.352 292.716 35.352H293.248V36.5H292.366C291.75 36.5 291.288 36.346 291.288 35.646V35.604H291.218C290.714 36.388 289.818 36.738 288.698 36.738ZM287.298 34.526C287.298 35.38 287.956 35.772 288.936 35.772C290.182 35.772 291.204 35.03 291.204 33.896V32.552C290.588 32.958 290.042 33.056 288.852 33.252C287.844 33.406 287.298 33.798 287.298 34.526ZM298.204 36.738C295.908 36.738 294.48 35.156 294.48 32.72C294.48 30.256 295.936 28.646 298.232 28.646C300.038 28.646 301.256 29.612 301.508 31.292H300.304C300.038 30.256 299.254 29.71 298.19 29.71C296.65 29.71 295.698 30.872 295.698 32.65C295.698 34.47 296.706 35.674 298.302 35.674C299.464 35.674 300.304 35.016 300.43 33.924H301.634C301.424 35.66 300.094 36.738 298.204 36.738ZM305.721 36.5C304.657 36.5 304.111 35.926 304.111 34.82V29.948H302.837V28.884H304.111V26.91H305.231V28.884H306.967V29.948H305.231V34.722C305.231 35.198 305.469 35.436 305.903 35.436H307.009V36.5H305.721ZM311.479 36.738C309.519 36.738 308.441 35.912 308.357 34.358H309.547C309.645 35.268 310.247 35.674 311.479 35.674C312.767 35.674 313.425 35.212 313.425 34.358C313.425 33.77 313.047 33.462 312.109 33.266L310.723 32.972C309.281 32.664 308.511 31.936 308.511 30.816C308.511 29.486 309.645 28.646 311.479 28.646C313.341 28.646 314.433 29.514 314.489 31.026H313.313C313.229 30.13 312.627 29.71 311.479 29.71C310.317 29.71 309.659 30.102 309.659 30.816C309.659 31.404 310.093 31.684 311.381 31.964L312.543 32.216C313.929 32.51 314.573 33.168 314.573 34.358C314.573 35.856 313.467 36.738 311.479 36.738ZM321.994 36.738C320.356 36.738 319.376 35.996 319.376 34.582C319.376 33.21 320.3 32.538 321.952 32.258C324.024 31.908 324.5 31.824 324.5 31.012C324.5 30.2 323.94 29.71 322.694 29.71C321.406 29.71 320.86 30.158 320.776 31.026H319.544C319.67 29.5 320.72 28.646 322.694 28.646C324.57 28.646 325.634 29.332 325.634 31.124V34.708C325.634 35.24 325.676 35.352 326.012 35.352H326.544V36.5H325.662C325.046 36.5 324.584 36.346 324.584 35.646V35.604H324.514C324.01 36.388 323.114 36.738 321.994 36.738ZM320.594 34.526C320.594 35.38 321.252 35.772 322.232 35.772C323.478 35.772 324.5 35.03 324.5 33.896V32.552C323.884 32.958 323.338 33.056 322.148 33.252C321.14 33.406 320.594 33.798 320.594 34.526ZM332.061 36.738C330.843 36.738 329.877 36.192 329.429 35.38H329.359V36.5H328.267V25.538H329.401V30.004H329.471C329.919 29.192 330.843 28.646 332.047 28.646C334.119 28.646 335.393 30.186 335.393 32.678C335.393 35.17 334.119 36.738 332.061 36.738ZM329.401 32.678C329.401 34.582 330.297 35.702 331.837 35.702C333.363 35.702 334.175 34.638 334.175 32.678C334.175 30.732 333.363 29.682 331.837 29.682C330.297 29.682 329.401 30.774 329.401 32.678ZM340.517 36.738C338.361 36.738 336.779 35.086 336.779 32.692C336.779 30.298 338.361 28.646 340.517 28.646C342.659 28.646 344.255 30.284 344.255 32.692C344.255 35.1 342.659 36.738 340.517 36.738ZM337.997 32.692C337.997 34.554 339.019 35.674 340.517 35.674C342.029 35.674 343.037 34.568 343.037 32.692C343.037 30.816 342.029 29.71 340.517 29.71C339.019 29.71 337.997 30.83 337.997 32.692ZM347.878 36.5L344.98 28.884H346.212L348.424 35.044H348.48L350.692 28.884H351.924L349.026 36.5H347.878ZM356.376 36.738C354.038 36.738 352.666 35.156 352.666 32.72C352.666 30.27 354.066 28.646 356.376 28.646C358.42 28.646 359.848 29.99 359.848 32.454C359.848 32.678 359.848 32.818 359.834 33.098H353.898C354.038 34.708 355.004 35.674 356.376 35.674C357.664 35.674 358.532 34.988 358.658 33.924H359.834C359.624 35.646 358.294 36.738 356.376 36.738ZM353.898 32.09H358.546C358.504 30.634 357.664 29.71 356.376 29.71C354.948 29.71 354.052 30.648 353.898 32.09ZM367.597 35.814C367.083 35.8047 366.584 35.7627 366.099 35.688C365.613 35.604 365.221 35.492 364.923 35.352V34.162C365.24 34.3113 365.646 34.442 366.141 34.554C366.635 34.666 367.121 34.7267 367.597 34.736V31.908C367.139 31.7773 366.738 31.6373 366.393 31.488C366.057 31.3293 365.781 31.152 365.567 30.956C365.352 30.76 365.189 30.536 365.077 30.284C364.974 30.0227 364.923 29.724 364.923 29.388C364.923 28.9307 365.03 28.5387 365.245 28.212C365.469 27.8853 365.781 27.6287 366.183 27.442C366.584 27.246 367.055 27.134 367.597 27.106V25.874H368.493V27.092C368.987 27.1013 369.435 27.1573 369.837 27.26C370.247 27.3533 370.621 27.47 370.957 27.61L370.579 28.646C370.28 28.5247 369.949 28.422 369.585 28.338C369.23 28.2447 368.866 28.184 368.493 28.156V30.97C369.109 31.1473 369.622 31.3387 370.033 31.544C370.443 31.74 370.751 31.9873 370.957 32.286C371.171 32.5753 371.279 32.9533 371.279 33.42C371.279 34.0733 371.036 34.6053 370.551 35.016C370.065 35.4173 369.379 35.6647 368.493 35.758V37.312H367.597V35.814ZM368.493 34.666C369.043 34.61 369.445 34.484 369.697 34.288C369.949 34.0827 370.075 33.8213 370.075 33.504C370.075 33.2707 370.028 33.0793 369.935 32.93C369.841 32.7713 369.678 32.636 369.445 32.524C369.221 32.412 368.903 32.3047 368.493 32.202V34.666ZM367.597 28.184C367.261 28.2027 366.985 28.2633 366.771 28.366C366.556 28.4593 366.393 28.5853 366.281 28.744C366.178 28.9027 366.127 29.0847 366.127 29.29C366.127 29.5327 366.169 29.7427 366.253 29.92C366.346 30.088 366.5 30.2327 366.715 30.354C366.929 30.466 367.223 30.5687 367.597 30.662V28.184ZM375.118 36.5V28.45H372.906V27.358H374.068C374.95 27.358 375.23 26.91 375.23 26.07V25.538H376.28V36.5H375.118ZM379.109 36.5V25.538H381.055L384.653 34.918H384.709L388.237 25.538H390.197V36.5H388.979V27.092H388.909L385.255 36.5H384.037L380.397 27.134H380.327V36.5H379.109ZM395.15 33.49C395.15 32.062 395.752 31.32 396.942 30.368C397.432 29.99 398.244 29.332 398.244 28.17C398.244 26.938 397.292 26.28 395.962 26.28C394.268 26.28 393.428 27.372 393.33 28.646H392.238C392.364 26.742 393.526 25.3 395.962 25.3C398.272 25.3 399.364 26.546 399.364 28.17C399.364 29.598 398.3 30.634 397.684 31.124C396.424 32.118 396.2 32.496 396.2 33.476V33.798H395.15V33.49ZM395.024 36.5V35.24H396.354V36.5H395.024Z" fill="#1C4244"></path><path d="M447.25 36.5C450.149 36.5 452.5 34.1495 452.5 31.25C452.5 28.3505 450.149 26 447.25 26C444.351 26 442 28.3505 442 31.25C442 34.1495 444.351 36.5 447.25 36.5Z" stroke="#122E2B" stroke-width="1.02931" stroke-linecap="round" stroke-linejoin="round"></path><path d="M450.963 34.9626L454.001 38.0001" stroke="#122E2B" stroke-width="1.02931" stroke-linecap="round" stroke-linejoin="round"></path><path d="M0 64H480V376C480 380.418 476.418 384 472 384H7.99999C3.58171 384 0 380.418 0 376V64Z" fill="white"></path><path d="M28.876 100V94.89H22.492V100H21.274V89.038H22.492V93.742H28.876V89.038H30.094V100H28.876ZM35.4806 100.238C33.1426 100.238 31.7706 98.656 31.7706 96.22C31.7706 93.77 33.1706 92.146 35.4806 92.146C37.5246 92.146 38.9526 93.49 38.9526 95.954C38.9526 96.178 38.9526 96.318 38.9386 96.598H33.0026C33.1426 98.208 34.1086 99.174 35.4806 99.174C36.7686 99.174 37.6366 98.488 37.7626 97.424H38.9386C38.7286 99.146 37.3986 100.238 35.4806 100.238ZM33.0026 95.59H37.6506C37.6086 94.134 36.7686 93.21 35.4806 93.21C34.0526 93.21 33.1566 94.148 33.0026 95.59ZM41.6518 93.504C42.0018 92.566 42.8418 92.244 43.6538 92.244H44.1298V93.308H43.7798C42.3098 93.308 41.6518 94.19 41.6518 95.912V100H40.5178V92.384H41.5818V93.504H41.6518ZM48.4005 100.238C46.0625 100.238 44.6905 98.656 44.6905 96.22C44.6905 93.77 46.0905 92.146 48.4005 92.146C50.4445 92.146 51.8725 93.49 51.8725 95.954C51.8725 96.178 51.8725 96.318 51.8585 96.598H45.9225C46.0625 98.208 47.0285 99.174 48.4005 99.174C49.6885 99.174 50.5565 98.488 50.6825 97.424H51.8585C51.6485 99.146 50.3185 100.238 48.4005 100.238ZM45.9225 95.59H50.5705C50.5285 94.134 49.6885 93.21 48.4005 93.21C46.9725 93.21 46.0765 94.148 45.9225 95.59ZM58.7115 100.238C57.0735 100.238 56.0935 99.496 56.0935 98.082C56.0935 96.71 57.0175 96.038 58.6695 95.758C60.7415 95.408 61.2175 95.324 61.2175 94.512C61.2175 93.7 60.6575 93.21 59.4115 93.21C58.1235 93.21 57.5775 93.658 57.4935 94.526H56.2615C56.3875 93 57.4375 92.146 59.4115 92.146C61.2875 92.146 62.3515 92.832 62.3515 94.624V98.208C62.3515 98.74 62.3935 98.852 62.7295 98.852H63.2615V100H62.3795C61.7635 100 61.3015 99.846 61.3015 99.146V99.104H61.2315C60.7275 99.888 59.8315 100.238 58.7115 100.238ZM57.3115 98.026C57.3115 98.88 57.9695 99.272 58.9495 99.272C60.1955 99.272 61.2175 98.53 61.2175 97.396V96.052C60.6015 96.458 60.0555 96.556 58.8655 96.752C57.8575 96.906 57.3115 97.298 57.3115 98.026ZM65.81 93.504C66.16 92.566 67 92.244 67.812 92.244H68.288V93.308H67.938C66.468 93.308 65.81 94.19 65.81 95.912V100H64.676V92.384H65.74V93.504H65.81ZM72.5587 100.238C70.2207 100.238 68.8487 98.656 68.8487 96.22C68.8487 93.77 70.2487 92.146 72.5587 92.146C74.6027 92.146 76.0307 93.49 76.0307 95.954C76.0307 96.178 76.0307 96.318 76.0167 96.598H70.0807C70.2207 98.208 71.1867 99.174 72.5587 99.174C73.8467 99.174 74.7147 98.488 74.8407 97.424H76.0167C75.8067 99.146 74.4767 100.238 72.5587 100.238ZM70.0807 95.59H74.7287C74.6867 94.134 73.8467 93.21 72.5587 93.21C71.1307 93.21 70.2347 94.148 70.0807 95.59ZM80.4197 99.244C80.4197 97.466 81.1057 96.402 82.9257 95.296L84.6057 94.274C85.6277 93.644 86.2017 93 86.2017 91.88C86.2017 90.704 85.3057 89.976 84.0457 89.976C82.4917 89.976 81.7077 90.9 81.6097 92.146H80.4337C80.5597 90.088 81.7777 88.8 84.0457 88.8C86.4117 88.8 87.5037 90.158 87.5037 91.88C87.5037 93.182 86.8037 94.302 85.5017 95.1L83.7237 96.192C82.0997 97.186 81.7217 97.844 81.7217 98.852H87.5737V100H80.4197V99.244ZM92.3752 103.038V92.384H93.4672V93.504H93.5372C93.9852 92.692 94.9512 92.146 96.1692 92.146C98.2272 92.146 99.5012 93.714 99.5012 96.206C99.5012 98.698 98.2272 100.238 96.1552 100.238C94.9512 100.238 94.0272 99.692 93.5792 98.88H93.5092V103.038H92.3752ZM93.5092 96.206C93.5092 98.11 94.4052 99.202 95.9452 99.202C97.4712 99.202 98.2832 98.152 98.2832 96.206C98.2832 94.246 97.4712 93.182 95.9452 93.182C94.4052 93.182 93.5092 94.302 93.5092 96.206ZM104.346 100.238C102.19 100.238 100.608 98.586 100.608 96.192C100.608 93.798 102.19 92.146 104.346 92.146C106.488 92.146 108.084 93.784 108.084 96.192C108.084 98.6 106.488 100.238 104.346 100.238ZM101.826 96.192C101.826 98.054 102.848 99.174 104.346 99.174C105.858 99.174 106.866 98.068 106.866 96.192C106.866 94.316 105.858 93.21 104.346 93.21C102.848 93.21 101.826 94.33 101.826 96.192ZM111.911 100C110.847 100 110.301 99.426 110.301 98.32V93.448H109.027V92.384H110.301V90.41H111.421V92.384H113.157V93.448H111.421V98.222C111.421 98.698 111.659 98.936 112.093 98.936H113.199V100H111.911ZM117.758 100.238C115.42 100.238 114.048 98.656 114.048 96.22C114.048 93.77 115.448 92.146 117.758 92.146C119.802 92.146 121.23 93.49 121.23 95.954C121.23 96.178 121.23 96.318 121.216 96.598H115.28C115.42 98.208 116.386 99.174 117.758 99.174C119.046 99.174 119.914 98.488 120.04 97.424H121.216C121.006 99.146 119.676 100.238 117.758 100.238ZM115.28 95.59H119.928C119.886 94.134 119.046 93.21 117.758 93.21C116.33 93.21 115.434 94.148 115.28 95.59ZM122.795 100V92.384H123.859V93.504H123.929C124.405 92.706 125.287 92.146 126.477 92.146C128.157 92.146 129.039 93.056 129.039 94.806V100H127.905V95.114C127.905 93.826 127.359 93.21 126.211 93.21C124.769 93.21 123.929 94.19 123.929 95.912V100H122.795ZM133.061 100C131.997 100 131.451 99.426 131.451 98.32V93.448H130.177V92.384H131.451V90.41H132.571V92.384H134.307V93.448H132.571V98.222C132.571 98.698 132.809 98.936 133.243 98.936H134.349V100H133.061ZM135.879 100V92.384H137.013V100H135.879ZM135.753 90.788V89.416H137.139V90.788H135.753ZM141.208 100.238C139.57 100.238 138.59 99.496 138.59 98.082C138.59 96.71 139.514 96.038 141.166 95.758C143.238 95.408 143.714 95.324 143.714 94.512C143.714 93.7 143.154 93.21 141.908 93.21C140.62 93.21 140.074 93.658 139.99 94.526H138.758C138.884 93 139.934 92.146 141.908 92.146C143.784 92.146 144.848 92.832 144.848 94.624V98.208C144.848 98.74 144.89 98.852 145.226 98.852H145.758V100H144.876C144.26 100 143.798 99.846 143.798 99.146V99.104H143.728C143.224 99.888 142.328 100.238 141.208 100.238ZM139.808 98.026C139.808 98.88 140.466 99.272 141.446 99.272C142.692 99.272 143.714 98.53 143.714 97.396V96.052C143.098 96.458 142.552 96.556 141.362 96.752C140.354 96.906 139.808 97.298 139.808 98.026ZM147.2 100V89.038H148.334V100H147.2ZM156.709 100.238C154.371 100.238 152.999 98.656 152.999 96.22C152.999 93.77 154.399 92.146 156.709 92.146C158.753 92.146 160.181 93.49 160.181 95.954C160.181 96.178 160.181 96.318 160.167 96.598H154.231C154.371 98.208 155.337 99.174 156.709 99.174C157.997 99.174 158.865 98.488 158.991 97.424H160.167C159.957 99.146 158.627 100.238 156.709 100.238ZM154.231 95.59H158.879C158.837 94.134 157.997 93.21 156.709 93.21C155.281 93.21 154.385 94.148 154.231 95.59ZM161.746 100V92.384H162.81V93.504H162.88C163.356 92.706 164.238 92.146 165.148 92.146C166.31 92.146 167.094 92.58 167.402 93.644H167.472C168.018 92.706 168.9 92.146 169.81 92.146C171.322 92.146 172.204 92.874 172.204 94.806V100H171.07V95.114C171.07 93.644 170.524 93.21 169.544 93.21C168.382 93.21 167.542 94.05 167.542 95.912V100H166.408V95.114C166.408 93.644 165.862 93.21 164.882 93.21C163.72 93.21 162.88 94.19 162.88 95.912V100H161.746ZM177.914 100.238C176.696 100.238 175.73 99.692 175.282 98.88H175.212V100H174.12V89.038H175.254V93.504H175.324C175.772 92.692 176.696 92.146 177.9 92.146C179.972 92.146 181.246 93.686 181.246 96.178C181.246 98.67 179.972 100.238 177.914 100.238ZM175.254 96.178C175.254 98.082 176.15 99.202 177.69 99.202C179.216 99.202 180.028 98.138 180.028 96.178C180.028 94.232 179.216 93.182 177.69 93.182C176.15 93.182 175.254 94.274 175.254 96.178ZM186.076 100.238C183.738 100.238 182.366 98.656 182.366 96.22C182.366 93.77 183.766 92.146 186.076 92.146C188.12 92.146 189.548 93.49 189.548 95.954C189.548 96.178 189.548 96.318 189.534 96.598H183.598C183.738 98.208 184.704 99.174 186.076 99.174C187.364 99.174 188.232 98.488 188.358 97.424H189.534C189.324 99.146 187.994 100.238 186.076 100.238ZM183.598 95.59H188.246C188.204 94.134 187.364 93.21 186.076 93.21C184.648 93.21 183.752 94.148 183.598 95.59ZM194.011 100.238C191.953 100.238 190.679 98.67 190.679 96.178C190.679 93.686 191.953 92.146 194.025 92.146C195.229 92.146 196.153 92.692 196.601 93.504H196.671V89.038H197.805V100H196.713V98.88H196.643C196.195 99.692 195.229 100.238 194.011 100.238ZM191.897 96.178C191.897 98.138 192.709 99.202 194.235 99.202C195.775 99.202 196.671 98.082 196.671 96.178C196.671 94.274 195.775 93.182 194.235 93.182C192.709 93.182 191.897 94.232 191.897 96.178ZM202.748 100.238C200.69 100.238 199.416 98.67 199.416 96.178C199.416 93.686 200.69 92.146 202.762 92.146C203.966 92.146 204.89 92.692 205.338 93.504H205.408V89.038H206.542V100H205.45V98.88H205.38C204.932 99.692 203.966 100.238 202.748 100.238ZM200.634 96.178C200.634 98.138 201.446 99.202 202.972 99.202C204.512 99.202 205.408 98.082 205.408 96.178C205.408 94.274 204.512 93.182 202.972 93.182C201.446 93.182 200.634 94.232 200.634 96.178ZM211.834 100.238C209.496 100.238 208.124 98.656 208.124 96.22C208.124 93.77 209.524 92.146 211.834 92.146C213.878 92.146 215.306 93.49 215.306 95.954C215.306 96.178 215.306 96.318 215.292 96.598H209.356C209.496 98.208 210.462 99.174 211.834 99.174C213.122 99.174 213.99 98.488 214.116 97.424H215.292C215.082 99.146 213.752 100.238 211.834 100.238ZM209.356 95.59H214.004C213.962 94.134 213.122 93.21 211.834 93.21C210.406 93.21 209.51 94.148 209.356 95.59ZM219.769 100.238C217.711 100.238 216.437 98.67 216.437 96.178C216.437 93.686 217.711 92.146 219.783 92.146C220.987 92.146 221.911 92.692 222.359 93.504H222.429V89.038H223.563V100H222.471V98.88H222.401C221.953 99.692 220.987 100.238 219.769 100.238ZM217.655 96.178C217.655 98.138 218.467 99.202 219.993 99.202C221.533 99.202 222.429 98.082 222.429 96.178C222.429 94.274 221.533 93.182 219.993 93.182C218.467 93.182 217.655 94.232 217.655 96.178ZM231.357 100.238C229.397 100.238 228.319 99.412 228.235 97.858H229.425C229.523 98.768 230.125 99.174 231.357 99.174C232.645 99.174 233.303 98.712 233.303 97.858C233.303 97.27 232.925 96.962 231.987 96.766L230.601 96.472C229.159 96.164 228.389 95.436 228.389 94.316C228.389 92.986 229.523 92.146 231.357 92.146C233.219 92.146 234.311 93.014 234.367 94.526H233.191C233.107 93.63 232.505 93.21 231.357 93.21C230.195 93.21 229.537 93.602 229.537 94.316C229.537 94.904 229.971 95.184 231.259 95.464L232.421 95.716C233.807 96.01 234.451 96.668 234.451 97.858C234.451 99.356 233.345 100.238 231.357 100.238ZM239.287 100.238C236.949 100.238 235.577 98.656 235.577 96.22C235.577 93.77 236.977 92.146 239.287 92.146C241.331 92.146 242.759 93.49 242.759 95.954C242.759 96.178 242.759 96.318 242.745 96.598H236.809C236.949 98.208 237.915 99.174 239.287 99.174C240.575 99.174 241.443 98.488 241.569 97.424H242.745C242.535 99.146 241.205 100.238 239.287 100.238ZM236.809 95.59H241.457C241.415 94.134 240.575 93.21 239.287 93.21C237.859 93.21 236.963 94.148 236.809 95.59ZM245.458 93.504C245.808 92.566 246.648 92.244 247.46 92.244H247.936V93.308H247.586C246.116 93.308 245.458 94.19 245.458 95.912V100H244.324V92.384H245.388V93.504H245.458ZM251.359 100L248.461 92.384H249.693L251.905 98.544H251.961L254.173 92.384H255.405L252.507 100H251.359ZM256.574 100V92.384H257.708V100H256.574ZM256.448 90.788V89.416H257.834V90.788H256.448ZM262.981 100.238C260.685 100.238 259.257 98.656 259.257 96.22C259.257 93.756 260.713 92.146 263.009 92.146C264.815 92.146 266.033 93.112 266.285 94.792H265.081C264.815 93.756 264.031 93.21 262.967 93.21C261.427 93.21 260.475 94.372 260.475 96.15C260.475 97.97 261.483 99.174 263.079 99.174C264.241 99.174 265.081 98.516 265.207 97.424H266.411C266.201 99.16 264.871 100.238 262.981 100.238ZM271.184 100.238C268.846 100.238 267.474 98.656 267.474 96.22C267.474 93.77 268.874 92.146 271.184 92.146C273.228 92.146 274.656 93.49 274.656 95.954C274.656 96.178 274.656 96.318 274.642 96.598H268.706C268.846 98.208 269.812 99.174 271.184 99.174C272.472 99.174 273.34 98.488 273.466 97.424H274.642C274.432 99.146 273.102 100.238 271.184 100.238ZM268.706 95.59H273.354C273.312 94.134 272.472 93.21 271.184 93.21C269.756 93.21 268.86 94.148 268.706 95.59ZM282.573 100.238C280.277 100.238 278.849 98.656 278.849 96.22C278.849 93.756 280.305 92.146 282.601 92.146C284.407 92.146 285.625 93.112 285.877 94.792H284.673C284.407 93.756 283.623 93.21 282.559 93.21C281.019 93.21 280.067 94.372 280.067 96.15C280.067 97.97 281.075 99.174 282.671 99.174C283.833 99.174 284.673 98.516 284.799 97.424H286.003C285.793 99.16 284.463 100.238 282.573 100.238ZM290.79 100.238C288.634 100.238 287.052 98.586 287.052 96.192C287.052 93.798 288.634 92.146 290.79 92.146C292.932 92.146 294.528 93.784 294.528 96.192C294.528 98.6 292.932 100.238 290.79 100.238ZM288.27 96.192C288.27 98.054 289.292 99.174 290.79 99.174C292.302 99.174 293.31 98.068 293.31 96.192C293.31 94.316 292.302 93.21 290.79 93.21C289.292 93.21 288.27 94.33 288.27 96.192ZM296.072 100V92.384H297.136V93.504H297.206C297.682 92.706 298.564 92.146 299.754 92.146C301.434 92.146 302.316 93.056 302.316 94.806V100H301.182V95.114C301.182 93.826 300.636 93.21 299.488 93.21C298.046 93.21 297.206 94.19 297.206 95.912V100H296.072ZM306.339 100C305.275 100 304.729 99.426 304.729 98.32V93.448H303.455V92.384H304.729V90.41H305.849V92.384H307.585V93.448H305.849V98.222C305.849 98.698 306.087 98.936 306.521 98.936H307.627V100H306.339ZM310.29 93.504C310.64 92.566 311.48 92.244 312.292 92.244H312.768V93.308H312.418C310.948 93.308 310.29 94.19 310.29 95.912V100H309.156V92.384H310.22V93.504H310.29ZM316.003 100.238C314.365 100.238 313.385 99.496 313.385 98.082C313.385 96.71 314.309 96.038 315.961 95.758C318.033 95.408 318.509 95.324 318.509 94.512C318.509 93.7 317.949 93.21 316.703 93.21C315.415 93.21 314.869 93.658 314.785 94.526H313.553C313.679 93 314.729 92.146 316.703 92.146C318.579 92.146 319.643 92.832 319.643 94.624V98.208C319.643 98.74 319.685 98.852 320.021 98.852H320.553V100H319.671C319.055 100 318.593 99.846 318.593 99.146V99.104H318.523C318.019 99.888 317.123 100.238 316.003 100.238ZM314.603 98.026C314.603 98.88 315.261 99.272 316.241 99.272C317.487 99.272 318.509 98.53 318.509 97.396V96.052C317.893 96.458 317.347 96.556 316.157 96.752C315.149 96.906 314.603 97.298 314.603 98.026ZM325.229 100.238C322.933 100.238 321.505 98.656 321.505 96.22C321.505 93.756 322.961 92.146 325.257 92.146C327.063 92.146 328.281 93.112 328.533 94.792H327.329C327.063 93.756 326.279 93.21 325.215 93.21C323.675 93.21 322.723 94.372 322.723 96.15C322.723 97.97 323.731 99.174 325.327 99.174C326.489 99.174 327.329 98.516 327.455 97.424H328.659C328.449 99.16 327.119 100.238 325.229 100.238ZM332.466 100C331.402 100 330.856 99.426 330.856 98.32V93.448H329.582V92.384H330.856V90.41H331.976V92.384H333.712V93.448H331.976V98.222C331.976 98.698 332.214 98.936 332.648 98.936H333.754V100H332.466ZM337.943 100.238C335.983 100.238 334.905 99.412 334.821 97.858H336.011C336.109 98.768 336.711 99.174 337.943 99.174C339.231 99.174 339.889 98.712 339.889 97.858C339.889 97.27 339.511 96.962 338.573 96.766L337.187 96.472C335.745 96.164 334.975 95.436 334.975 94.316C334.975 92.986 336.109 92.146 337.943 92.146C339.805 92.146 340.897 93.014 340.953 94.526H339.777C339.693 93.63 339.091 93.21 337.943 93.21C336.781 93.21 336.123 93.602 336.123 94.316C336.123 94.904 336.557 95.184 337.845 95.464L339.007 95.716C340.393 96.01 341.037 96.668 341.037 97.858C341.037 99.356 339.931 100.238 337.943 100.238ZM347.997 100C346.933 100 346.387 99.426 346.387 98.32V93.448H345.113V92.384H346.387V90.41H347.507V92.384H349.243V93.448H347.507V98.222C347.507 98.698 347.745 98.936 348.179 98.936H349.285V100H347.997ZM350.843 100V89.024H351.977V93.504H352.047C352.523 92.706 353.335 92.146 354.525 92.146C356.205 92.146 357.087 93.056 357.087 94.806V100H355.953V95.114C355.953 93.826 355.407 93.21 354.259 93.21C352.817 93.21 351.977 94.19 351.977 95.912V100H350.843ZM361.161 100.238C359.523 100.238 358.543 99.496 358.543 98.082C358.543 96.71 359.467 96.038 361.119 95.758C363.191 95.408 363.667 95.324 363.667 94.512C363.667 93.7 363.107 93.21 361.861 93.21C360.573 93.21 360.027 93.658 359.943 94.526H358.711C358.837 93 359.887 92.146 361.861 92.146C363.737 92.146 364.801 92.832 364.801 94.624V98.208C364.801 98.74 364.843 98.852 365.179 98.852H365.711V100H364.829C364.213 100 363.751 99.846 363.751 99.146V99.104H363.681C363.177 99.888 362.281 100.238 361.161 100.238ZM359.761 98.026C359.761 98.88 360.419 99.272 361.399 99.272C362.645 99.272 363.667 98.53 363.667 97.396V96.052C363.051 96.458 362.505 96.556 361.315 96.752C360.307 96.906 359.761 97.298 359.761 98.026ZM369.093 100C368.029 100 367.483 99.426 367.483 98.32V93.448H366.209V92.384H367.483V90.41H368.603V92.384H370.339V93.448H368.603V98.222C368.603 98.698 368.841 98.936 369.275 98.936H370.381V100H369.093ZM375 100V92.384H376.064V93.504H376.134C376.61 92.706 377.492 92.146 378.402 92.146C379.564 92.146 380.348 92.58 380.656 93.644H380.726C381.272 92.706 382.154 92.146 383.064 92.146C384.576 92.146 385.458 92.874 385.458 94.806V100H384.324V95.114C384.324 93.644 383.778 93.21 382.798 93.21C381.636 93.21 380.796 94.05 380.796 95.912V100H379.662V95.114C379.662 93.644 379.116 93.21 378.136 93.21C376.974 93.21 376.134 94.19 376.134 95.912V100H375ZM389.53 100.238C387.892 100.238 386.912 99.496 386.912 98.082C386.912 96.71 387.836 96.038 389.488 95.758C391.56 95.408 392.036 95.324 392.036 94.512C392.036 93.7 391.476 93.21 390.23 93.21C388.942 93.21 388.396 93.658 388.312 94.526H387.08C387.206 93 388.256 92.146 390.23 92.146C392.106 92.146 393.17 92.832 393.17 94.624V98.208C393.17 98.74 393.212 98.852 393.548 98.852H394.08V100H393.198C392.582 100 392.12 99.846 392.12 99.146V99.104H392.05C391.546 99.888 390.65 100.238 389.53 100.238ZM388.13 98.026C388.13 98.88 388.788 99.272 389.768 99.272C391.014 99.272 392.036 98.53 392.036 97.396V96.052C391.42 96.458 390.874 96.556 389.684 96.752C388.676 96.906 388.13 97.298 388.13 98.026ZM394.862 103.038V101.974H395.702C396.276 101.974 396.416 101.862 396.598 101.4L397.144 100.056L394.148 92.384H395.436L397.704 98.544H397.774L399.93 92.384H401.218L397.536 101.848C397.214 102.688 396.78 103.038 395.94 103.038H394.862ZM405.516 100V89.024H406.65V93.504H406.72C407.196 92.706 408.008 92.146 409.198 92.146C410.878 92.146 411.76 93.056 411.76 94.806V100H410.626V95.114C410.626 93.826 410.08 93.21 408.932 93.21C407.49 93.21 406.65 94.19 406.65 95.912V100H405.516ZM415.835 100.238C414.197 100.238 413.217 99.496 413.217 98.082C413.217 96.71 414.141 96.038 415.793 95.758C417.865 95.408 418.341 95.324 418.341 94.512C418.341 93.7 417.781 93.21 416.535 93.21C415.247 93.21 414.701 93.658 414.617 94.526H413.385C413.511 93 414.561 92.146 416.535 92.146C418.411 92.146 419.475 92.832 419.475 94.624V98.208C419.475 98.74 419.517 98.852 419.853 98.852H420.385V100H419.503C418.887 100 418.425 99.846 418.425 99.146V99.104H418.355C417.851 99.888 416.955 100.238 415.835 100.238ZM414.435 98.026C414.435 98.88 415.093 99.272 416.073 99.272C417.319 99.272 418.341 98.53 418.341 97.396V96.052C417.725 96.458 417.179 96.556 415.989 96.752C414.981 96.906 414.435 97.298 414.435 98.026ZM423.351 100L420.453 92.384H421.685L423.897 98.544H423.953L426.165 92.384H427.397L424.499 100H423.351ZM431.569 100.238C429.231 100.238 427.859 98.656 427.859 96.22C427.859 93.77 429.259 92.146 431.569 92.146C433.613 92.146 435.041 93.49 435.041 95.954C435.041 96.178 435.041 96.318 435.026 96.598H429.091C429.231 98.208 430.197 99.174 431.569 99.174C432.857 99.174 433.725 98.488 433.851 97.424H435.026C434.817 99.146 433.487 100.238 431.569 100.238ZM429.091 95.59H433.739C433.697 94.134 432.857 93.21 431.569 93.21C430.141 93.21 429.245 94.148 429.091 95.59ZM441.88 100.238C440.242 100.238 439.262 99.496 439.262 98.082C439.262 96.71 440.186 96.038 441.838 95.758C443.91 95.408 444.386 95.324 444.386 94.512C444.386 93.7 443.826 93.21 442.58 93.21C441.292 93.21 440.745 93.658 440.662 94.526H439.43C439.556 93 440.606 92.146 442.58 92.146C444.456 92.146 445.52 92.832 445.52 94.624V98.208C445.52 98.74 445.562 98.852 445.898 98.852H446.43V100H445.548C444.932 100 444.47 99.846 444.47 99.146V99.104H444.4C443.896 99.888 443 100.238 441.88 100.238ZM440.48 98.026C440.48 98.88 441.138 99.272 442.118 99.272C443.364 99.272 444.386 98.53 444.386 97.396V96.052C443.77 96.458 443.224 96.556 442.034 96.752C441.026 96.906 440.48 97.298 440.48 98.026ZM23.066 124L20.168 116.384H21.4L23.612 122.544H23.668L25.88 116.384H27.112L24.214 124H23.066ZM30.2467 124.238C28.6087 124.238 27.6287 123.496 27.6287 122.082C27.6287 120.71 28.5527 120.038 30.2047 119.758C32.2767 119.408 32.7527 119.324 32.7527 118.512C32.7527 117.7 32.1927 117.21 30.9467 117.21C29.6587 117.21 29.1127 117.658 29.0287 118.526H27.7967C27.9227 117 28.9727 116.146 30.9467 116.146C32.8227 116.146 33.8867 116.832 33.8867 118.624V122.208C33.8867 122.74 33.9287 122.852 34.2647 122.852H34.7967V124H33.9147C33.2987 124 32.8367 123.846 32.8367 123.146V123.104H32.7667C32.2627 123.888 31.3667 124.238 30.2467 124.238ZM28.8467 122.026C28.8467 122.88 29.5047 123.272 30.4847 123.272C31.7307 123.272 32.7527 122.53 32.7527 121.396V120.052C32.1367 120.458 31.5907 120.556 30.4007 120.752C29.3927 120.906 28.8467 121.298 28.8467 122.026ZM36.2391 124V113.038H37.3731V124H36.2391ZM45.3883 116.384V124H44.3243V122.88H44.2543C43.7783 123.678 42.8963 124.238 41.8463 124.238C40.1663 124.238 39.2843 123.328 39.2843 121.578V116.384H40.4183V121.27C40.4183 122.558 40.9643 123.174 42.1123 123.174C43.4143 123.174 44.2543 122.194 44.2543 120.472V116.384H45.3883ZM50.6564 124.238C48.3184 124.238 46.9464 122.656 46.9464 120.22C46.9464 117.77 48.3464 116.146 50.6564 116.146C52.7004 116.146 54.1284 117.49 54.1284 119.954C54.1284 120.178 54.1284 120.318 54.1144 120.598H48.1784C48.3184 122.208 49.2844 123.174 50.6564 123.174C51.9444 123.174 52.8124 122.488 52.9384 121.424H54.1144C53.9044 123.146 52.5744 124.238 50.6564 124.238ZM48.1784 119.59H52.8264C52.7844 118.134 51.9444 117.21 50.6564 117.21C49.2284 117.21 48.3324 118.148 48.1784 119.59ZM60.9674 124.238C59.3294 124.238 58.3494 123.496 58.3494 122.082C58.3494 120.71 59.2734 120.038 60.9254 119.758C62.9974 119.408 63.4734 119.324 63.4734 118.512C63.4734 117.7 62.9134 117.21 61.6674 117.21C60.3794 117.21 59.8334 117.658 59.7494 118.526H58.5174C58.6434 117 59.6934 116.146 61.6674 116.146C63.5434 116.146 64.6074 116.832 64.6074 118.624V122.208C64.6074 122.74 64.6494 122.852 64.9854 122.852H65.5174V124H64.6354C64.0194 124 63.5574 123.846 63.5574 123.146V123.104H63.4874C62.9834 123.888 62.0874 124.238 60.9674 124.238ZM59.5674 122.026C59.5674 122.88 60.2254 123.272 61.2054 123.272C62.4514 123.272 63.4734 122.53 63.4734 121.396V120.052C62.8574 120.458 62.3114 120.556 61.1214 120.752C60.1134 120.906 59.5674 121.298 59.5674 122.026ZM70.7538 124.238C69.5358 124.238 68.5698 123.692 68.1218 122.88H68.0518V124H66.9598V113.038H68.0938V117.504H68.1638C68.6118 116.692 69.5358 116.146 70.7398 116.146C72.8118 116.146 74.0858 117.686 74.0858 120.178C74.0858 122.67 72.8118 124.238 70.7538 124.238ZM68.0938 120.178C68.0938 122.082 68.9898 123.202 70.5298 123.202C72.0558 123.202 72.8678 122.138 72.8678 120.178C72.8678 118.232 72.0558 117.182 70.5298 117.182C68.9898 117.182 68.0938 118.274 68.0938 120.178ZM78.9302 124.238C76.7742 124.238 75.1922 122.586 75.1922 120.192C75.1922 117.798 76.7742 116.146 78.9302 116.146C81.0722 116.146 82.6682 117.784 82.6682 120.192C82.6682 122.6 81.0722 124.238 78.9302 124.238ZM76.4102 120.192C76.4102 122.054 77.4322 123.174 78.9302 123.174C80.4422 123.174 81.4502 122.068 81.4502 120.192C81.4502 118.316 80.4422 117.21 78.9302 117.21C77.4322 117.21 76.4102 118.33 76.4102 120.192ZM86.0113 124L83.1133 116.384H84.3453L86.5573 122.544H86.6133L88.8253 116.384H90.0573L87.1593 124H86.0113ZM94.2287 124.238C91.8907 124.238 90.5187 122.656 90.5187 120.22C90.5187 117.77 91.9187 116.146 94.2287 116.146C96.2727 116.146 97.7007 117.49 97.7007 119.954C97.7007 120.178 97.7007 120.318 97.6867 120.598H91.7507C91.8907 122.208 92.8567 123.174 94.2287 123.174C95.5167 123.174 96.3847 122.488 96.5107 121.424H97.6867C97.4767 123.146 96.1467 124.238 94.2287 124.238ZM91.7507 119.59H96.3987C96.3567 118.134 95.5167 117.21 94.2287 117.21C92.8007 117.21 91.9047 118.148 91.7507 119.59ZM104.89 123.314C104.376 123.305 103.877 123.263 103.392 123.188C102.906 123.104 102.514 122.992 102.216 122.852V121.662C102.533 121.811 102.939 121.942 103.434 122.054C103.928 122.166 104.414 122.227 104.89 122.236V119.408C104.432 119.277 104.031 119.137 103.686 118.988C103.35 118.829 103.074 118.652 102.86 118.456C102.645 118.26 102.482 118.036 102.37 117.784C102.267 117.523 102.216 117.224 102.216 116.888C102.216 116.431 102.323 116.039 102.538 115.712C102.762 115.385 103.074 115.129 103.476 114.942C103.877 114.746 104.348 114.634 104.89 114.606V113.374H105.786V114.592C106.28 114.601 106.728 114.657 107.13 114.76C107.54 114.853 107.914 114.97 108.25 115.11L107.872 116.146C107.573 116.025 107.242 115.922 106.878 115.838C106.523 115.745 106.159 115.684 105.786 115.656V118.47C106.402 118.647 106.915 118.839 107.326 119.044C107.736 119.24 108.044 119.487 108.25 119.786C108.464 120.075 108.572 120.453 108.572 120.92C108.572 121.573 108.329 122.105 107.844 122.516C107.358 122.917 106.672 123.165 105.786 123.258V124.812H104.89V123.314ZM105.786 122.166C106.336 122.11 106.738 121.984 106.99 121.788C107.242 121.583 107.368 121.321 107.368 121.004C107.368 120.771 107.321 120.579 107.228 120.43C107.134 120.271 106.971 120.136 106.738 120.024C106.514 119.912 106.196 119.805 105.786 119.702V122.166ZM104.89 115.684C104.554 115.703 104.278 115.763 104.064 115.866C103.849 115.959 103.686 116.085 103.574 116.244C103.471 116.403 103.42 116.585 103.42 116.79C103.42 117.033 103.462 117.243 103.546 117.42C103.639 117.588 103.793 117.733 104.008 117.854C104.222 117.966 104.516 118.069 104.89 118.162V115.684ZM112.131 124V115.95H109.919V114.858H111.081C111.963 114.858 112.243 114.41 112.243 113.57V113.038H113.293V124H112.131ZM115.842 124V113.038H117.788L121.386 122.418H121.442L124.97 113.038H126.93V124H125.712V114.592H125.642L121.988 124H120.77L117.13 114.634H117.06V124H115.842ZM129.207 123.244C129.207 122.899 129.291 122.656 129.459 122.516C129.627 122.376 129.828 122.306 130.061 122.306C130.304 122.306 130.509 122.376 130.677 122.516C130.855 122.656 130.943 122.899 130.943 123.244C130.943 123.58 130.855 123.823 130.677 123.972C130.509 124.121 130.304 124.196 130.061 124.196C129.828 124.196 129.627 124.121 129.459 123.972C129.291 123.823 129.207 123.58 129.207 123.244ZM129.207 117.252C129.207 116.897 129.291 116.65 129.459 116.51C129.627 116.37 129.828 116.3 130.061 116.3C130.304 116.3 130.509 116.37 130.677 116.51C130.855 116.65 130.943 116.897 130.943 117.252C130.943 117.588 130.855 117.831 130.677 117.98C130.509 118.129 130.304 118.204 130.061 118.204C129.828 118.204 129.627 118.129 129.459 117.98C129.291 117.831 129.207 117.588 129.207 117.252Z" fill="#122E2B"></path><path d="M27.854 158.274C29.184 158.554 29.856 159.436 29.856 160.808C29.856 162.88 28.414 164 25.81 164H21.218V153.038H25.81C28.274 153.038 29.548 153.962 29.548 155.866C29.548 157.042 28.988 157.91 27.854 158.218V158.274ZM22.842 162.446H25.81C27.392 162.446 28.12 161.83 28.12 160.794C28.12 159.66 27.35 159.156 25.81 159.156H22.842V162.446ZM22.842 157.714H25.81C27.294 157.714 27.826 157.182 27.826 156.02C27.826 155.124 27.266 154.592 25.81 154.592H22.842V157.714ZM34.8804 164.238C32.6264 164.238 31.0164 162.572 31.0164 160.136C31.0164 157.714 32.6264 156.048 34.8804 156.048C37.1344 156.048 38.7444 157.7 38.7444 160.136C38.7444 162.586 37.1204 164.238 34.8804 164.238ZM32.6404 160.136C32.6404 161.886 33.5504 162.852 34.8804 162.852C36.2104 162.852 37.1204 161.9 37.1204 160.136C37.1204 158.386 36.2244 157.42 34.8804 157.42C33.5504 157.42 32.6404 158.4 32.6404 160.136ZM43.058 164.238C40.958 164.238 39.838 163.356 39.754 161.732H41.364C41.462 162.53 41.98 162.964 43.1 162.964C44.22 162.964 44.752 162.544 44.752 161.83C44.752 161.312 44.43 161.032 43.604 160.878L42.204 160.598C40.678 160.304 39.88 159.548 39.88 158.344C39.88 156.93 41.042 156.048 43.03 156.048C45.032 156.048 46.152 156.93 46.236 158.54H44.654C44.556 157.686 44.01 157.322 43.002 157.322C42.008 157.322 41.406 157.644 41.406 158.26C41.406 158.806 41.84 159.044 43.002 159.296L44.122 159.534C45.634 159.856 46.306 160.514 46.306 161.746C46.306 163.286 45.2 164.238 43.058 164.238ZM49.8922 164C48.7582 164 48.2402 163.44 48.2402 162.25V157.658H47.1062V156.286H48.2402V154.41H49.7802V156.286H51.3062V157.658H49.7802V161.942C49.7802 162.362 49.9482 162.558 50.3402 162.558H51.3342V164H49.8922ZM55.9761 164.238C53.7221 164.238 52.1121 162.572 52.1121 160.136C52.1121 157.714 53.7221 156.048 55.9761 156.048C58.2301 156.048 59.8401 157.7 59.8401 160.136C59.8401 162.586 58.2161 164.238 55.9761 164.238ZM53.7361 160.136C53.7361 161.886 54.6461 162.852 55.9761 162.852C57.3061 162.852 58.2161 161.9 58.2161 160.136C58.2161 158.386 57.3201 157.42 55.9761 157.42C54.6461 157.42 53.7361 158.4 53.7361 160.136ZM61.243 164V156.286H62.699V157.378H62.769C63.231 156.594 64.141 156.048 65.331 156.048C66.997 156.048 67.921 157.014 67.921 158.75V164H66.381V159.254C66.381 158.064 65.877 157.49 64.827 157.49C63.539 157.49 62.797 158.358 62.797 159.87V164H61.243ZM76.7587 164.238C74.1547 164.238 72.5447 162.992 72.4327 160.794H74.1127C74.2387 162.026 75.1767 162.712 76.7587 162.712C78.3827 162.712 79.0967 162.068 79.0967 160.92C79.0967 160.108 78.6207 159.646 77.3747 159.38L75.6247 159.002C73.5807 158.554 72.6007 157.504 72.6007 155.894C72.6007 154.018 74.1687 152.8 76.5907 152.8C79.0967 152.8 80.4967 154.088 80.5947 156.216H78.9147C78.8167 154.97 78.0467 154.34 76.5907 154.34C75.1907 154.34 74.3087 154.9 74.3087 155.894C74.3087 156.622 74.9247 157.21 76.2827 157.504L77.9347 157.854C79.9227 158.274 80.8047 159.198 80.8047 160.92C80.8047 162.964 79.3767 164.238 76.7587 164.238ZM85.713 164.238C83.319 164.238 81.835 162.642 81.835 160.15C81.835 157.658 83.333 156.048 85.727 156.048C87.687 156.048 89.003 157.098 89.241 158.89H87.617C87.393 157.98 86.707 157.49 85.727 157.49C84.313 157.49 83.459 158.498 83.459 160.108C83.459 161.746 84.355 162.796 85.797 162.796C86.861 162.796 87.561 162.208 87.701 161.242H89.325C89.115 163.09 87.743 164.238 85.713 164.238ZM90.6786 164V156.286H92.2326V164H90.6786ZM90.5666 154.942V153.29H92.3306V154.942H90.5666ZM97.5255 164.238C95.0895 164.238 93.6475 162.642 93.6475 160.164C93.6475 157.672 95.1315 156.048 97.4975 156.048C99.6955 156.048 101.138 157.476 101.138 159.94C101.138 160.164 101.124 160.388 101.11 160.64H95.2855C95.4115 162.068 96.2795 162.866 97.5255 162.866C98.6315 162.866 99.3735 162.39 99.5555 161.452H101.152C100.886 163.258 99.5275 164.238 97.5255 164.238ZM95.3135 159.436H99.4575C99.4015 158.218 98.6735 157.392 97.4975 157.392C96.2795 157.392 95.4815 158.162 95.3135 159.436ZM102.573 164V156.286H104.029V157.378H104.099C104.561 156.594 105.471 156.048 106.661 156.048C108.327 156.048 109.251 157.014 109.251 158.75V164H107.711V159.254C107.711 158.064 107.207 157.49 106.157 157.49C104.869 157.49 104.127 158.358 104.127 159.87V164H102.573ZM113.07 164C111.936 164 111.418 163.44 111.418 162.25V157.658H110.284V156.286H111.418V154.41H112.958V156.286H114.484V157.658H112.958V161.942C112.958 162.362 113.126 162.558 113.518 162.558H114.512V164H113.07ZM115.958 164V156.286H117.512V164H115.958ZM115.846 154.942V153.29H117.61V154.942H115.846ZM119.977 154.788C119.977 153.598 120.509 153.038 121.699 153.038H123.155V154.382H122.091C121.699 154.382 121.531 154.592 121.531 154.998V156.286H123.183V157.658H121.531V164H119.977V157.658H118.857V156.286H119.977V154.788ZM124.289 154.942V153.29H126.053V154.942H124.289ZM124.401 164V156.286H125.955V164H124.401ZM131.227 164.238C128.833 164.238 127.349 162.642 127.349 160.15C127.349 157.658 128.847 156.048 131.241 156.048C133.201 156.048 134.517 157.098 134.755 158.89H133.131C132.907 157.98 132.221 157.49 131.241 157.49C129.827 157.49 128.973 158.498 128.973 160.108C128.973 161.746 129.869 162.796 131.311 162.796C132.375 162.796 133.075 162.208 133.215 161.242H134.839C134.629 163.09 133.257 164.238 131.227 164.238ZM142.838 164.238C140.416 164.238 138.932 162.992 138.806 160.794H140.486C140.612 162.152 141.424 162.726 142.838 162.726C144.266 162.726 145.204 162.026 145.204 160.878C145.204 159.464 144.308 159.072 142.908 159.072H141.662V157.616H143.006C144.28 157.616 144.938 157.21 144.938 155.964C144.938 154.928 144.196 154.326 142.936 154.326C141.522 154.326 140.78 154.998 140.71 156.174H139.016C139.128 154.046 140.598 152.8 142.936 152.8C145.274 152.8 146.674 153.976 146.674 155.824C146.674 157.084 146.072 157.98 144.938 158.302V158.358C146.24 158.638 146.94 159.478 146.94 160.92C146.94 162.922 145.33 164.238 142.838 164.238ZM153.464 164V161.522H148.018V159.954L153.086 153.038H155.046V160.094H156.53V161.522H155.046V164H153.464ZM149.6 160.094H153.464V154.886H153.408L149.6 160.038V160.094ZM160.31 164L164.72 153.038H166.456L170.866 164H169.116L168.024 161.172H163.152L162.06 164H160.31ZM163.726 159.716H167.45L165.616 154.956H165.56L163.726 159.716ZM174.869 164.238C172.769 164.238 171.649 163.356 171.565 161.732H173.175C173.273 162.53 173.791 162.964 174.911 162.964C176.031 162.964 176.563 162.544 176.563 161.83C176.563 161.312 176.241 161.032 175.415 160.878L174.015 160.598C172.489 160.304 171.691 159.548 171.691 158.344C171.691 156.93 172.853 156.048 174.841 156.048C176.843 156.048 177.963 156.93 178.047 158.54H176.465C176.367 157.686 175.821 157.322 174.813 157.322C173.819 157.322 173.217 157.644 173.217 158.26C173.217 158.806 173.651 159.044 174.813 159.296L175.933 159.534C177.445 159.856 178.117 160.514 178.117 161.746C178.117 163.286 177.011 164.238 174.869 164.238ZM182.402 164.238C180.302 164.238 179.182 163.356 179.098 161.732H180.708C180.806 162.53 181.324 162.964 182.444 162.964C183.564 162.964 184.096 162.544 184.096 161.83C184.096 161.312 183.774 161.032 182.948 160.878L181.548 160.598C180.022 160.304 179.224 159.548 179.224 158.344C179.224 156.93 180.386 156.048 182.374 156.048C184.376 156.048 185.496 156.93 185.58 158.54H183.998C183.9 157.686 183.354 157.322 182.346 157.322C181.352 157.322 180.75 157.644 180.75 158.26C180.75 158.806 181.184 159.044 182.346 159.296L183.466 159.534C184.978 159.856 185.65 160.514 185.65 161.746C185.65 163.286 184.544 164.238 182.402 164.238ZM190.467 164.238C188.031 164.238 186.589 162.642 186.589 160.164C186.589 157.672 188.073 156.048 190.439 156.048C192.637 156.048 194.079 157.476 194.079 159.94C194.079 160.164 194.065 160.388 194.051 160.64H188.227C188.353 162.068 189.221 162.866 190.467 162.866C191.573 162.866 192.315 162.39 192.497 161.452H194.093C193.827 163.258 192.469 164.238 190.467 164.238ZM188.255 159.436H192.399C192.343 158.218 191.615 157.392 190.439 157.392C189.221 157.392 188.423 158.162 188.255 159.436ZM197.603 164C196.469 164 195.951 163.44 195.951 162.25V157.658H194.817V156.286H195.951V154.41H197.491V156.286H199.017V157.658H197.491V161.942C197.491 162.362 197.659 162.558 198.051 162.558H199.045V164H197.603ZM200.435 164V162.432H202.129V164H200.435Z" fill="#122E2B"></path><rect x="212" y="157" width="248" height="6" rx="3" fill="#EFF2F2"></rect><rect x="20" y="176" width="440" height="6" rx="3" fill="#EFF2F2"></rect><rect x="20" y="194" width="440" height="6" rx="3" fill="#EFF2F2"></rect><path d="M28.666 232V227.1H22.842V232H21.218V221.038H22.842V225.588H28.666V221.038H30.29V232H28.666ZM32.7297 232V221.038H37.0977C39.5757 221.038 40.9477 222.214 40.9477 224.342C40.9477 226.568 39.5757 227.814 37.0977 227.814H34.3537V232H32.7297ZM34.3537 226.26H37.0977C38.4697 226.26 39.2117 225.56 39.2117 224.342C39.2117 223.236 38.4697 222.592 37.0977 222.592H34.3537V226.26ZM49.3603 232.238C46.7563 232.238 45.1463 230.992 45.0343 228.794H46.7143C46.8403 230.026 47.7783 230.712 49.3603 230.712C50.9843 230.712 51.6983 230.068 51.6983 228.92C51.6983 228.108 51.2223 227.646 49.9763 227.38L48.2263 227.002C46.1823 226.554 45.2023 225.504 45.2023 223.894C45.2023 222.018 46.7703 220.8 49.1923 220.8C51.6983 220.8 53.0983 222.088 53.1963 224.216H51.5163C51.4183 222.97 50.6483 222.34 49.1923 222.34C47.7923 222.34 46.9103 222.9 46.9103 223.894C46.9103 224.622 47.5263 225.21 48.8843 225.504L50.5363 225.854C52.5243 226.274 53.4063 227.198 53.4063 228.92C53.4063 230.964 51.9783 232.238 49.3603 232.238ZM58.3146 232.238C55.8786 232.238 54.4366 230.642 54.4366 228.164C54.4366 225.672 55.9206 224.048 58.2866 224.048C60.4846 224.048 61.9266 225.476 61.9266 227.94C61.9266 228.164 61.9126 228.388 61.8986 228.64H56.0746C56.2006 230.068 57.0686 230.866 58.3146 230.866C59.4206 230.866 60.1626 230.39 60.3446 229.452H61.9406C61.6746 231.258 60.3166 232.238 58.3146 232.238ZM56.1026 227.436H60.2466C60.1906 226.218 59.4626 225.392 58.2866 225.392C57.0686 225.392 56.2706 226.162 56.1026 227.436ZM64.8882 225.378C65.2242 224.496 66.0082 224.174 66.8902 224.174H67.3522V225.616H66.9602C65.4482 225.616 64.9162 226.582 64.9162 228.108V232H63.3622V224.286H64.8182V225.378H64.8882ZM70.7108 232L67.8268 224.286H69.4928L71.5088 230.096H71.5648L73.5668 224.286H75.2328L72.3628 232H70.7108ZM79.4377 232.238C77.0017 232.238 75.5597 230.642 75.5597 228.164C75.5597 225.672 77.0437 224.048 79.4097 224.048C81.6077 224.048 83.0497 225.476 83.0497 227.94C83.0497 228.164 83.0357 228.388 83.0217 228.64H77.1977C77.3237 230.068 78.1917 230.866 79.4377 230.866C80.5437 230.866 81.2857 230.39 81.4677 229.452H83.0637C82.7977 231.258 81.4397 232.238 79.4377 232.238ZM77.2257 227.436H81.3697C81.3137 226.218 80.5857 225.392 79.4097 225.392C78.1917 225.392 77.3937 226.162 77.2257 227.436ZM86.0112 225.378C86.3472 224.496 87.1312 224.174 88.0132 224.174H88.4752V225.616H88.0832C86.5712 225.616 86.0392 226.582 86.0392 228.108V232H84.4852V224.286H85.9412V225.378H86.0112ZM94.4383 232V224.23H92.2683V222.83H93.3463C94.2143 222.83 94.5083 222.396 94.5083 221.57V221.038H96.0203V232H94.4383ZM101.838 232.238C99.3884 232.238 97.8204 230.88 97.8204 228.808H99.5004C99.5984 230.026 100.466 230.698 101.838 230.698C103.322 230.698 104.19 229.872 104.19 228.388C104.19 226.974 103.308 226.218 101.964 226.218C100.9 226.218 100.074 226.694 99.6124 227.52H97.9744L98.8844 221.038H105.436V222.592H100.27L99.8504 225.63H99.9064C100.508 225.07 101.334 224.762 102.342 224.762C104.484 224.762 105.94 226.092 105.94 228.388C105.94 230.712 104.302 232.238 101.838 232.238ZM111.25 232.238C108.646 232.238 107.05 229.984 107.05 226.512C107.05 223.026 108.632 220.8 111.25 220.8C113.84 220.8 115.422 223.012 115.422 226.512C115.422 229.998 113.84 232.238 111.25 232.238ZM108.772 226.512C108.772 229.214 109.696 230.656 111.25 230.656C112.79 230.656 113.7 229.2 113.7 226.512C113.7 223.824 112.79 222.382 111.25 222.382C109.696 222.382 108.772 223.824 108.772 226.512ZM120.916 232.238C118.312 232.238 116.716 229.984 116.716 226.512C116.716 223.026 118.298 220.8 120.916 220.8C123.506 220.8 125.088 223.012 125.088 226.512C125.088 229.998 123.506 232.238 120.916 232.238ZM118.438 226.512C118.438 229.214 119.362 230.656 120.916 230.656C122.456 230.656 123.366 229.2 123.366 226.512C123.366 223.824 122.456 222.382 120.916 222.382C119.362 222.382 118.438 223.824 118.438 226.512ZM126.197 232V230.432H127.891V232H126.197Z" fill="#122E2B"></path><rect x="137" y="225" width="323" height="6" rx="3" fill="#EFF2F2"></rect><rect x="20" y="244" width="440" height="6" rx="3" fill="#EFF2F2"></rect><rect x="20" y="262" width="440" height="6" rx="3" fill="#EFF2F2"></rect><rect x="20" y="306" width="214" height="58" rx="4" stroke="#EFF2F2" stroke-width="0.75"></rect><rect x="28" y="314" width="42" height="42" rx="4" fill="#E9EFE7"></rect><path d="M41.5 335V326.75C41.5 326.551 41.579 326.36 41.7197 326.22C41.8603 326.079 42.0511 326 42.25 326H51.25L56.5 331.25V335" stroke="#122E2B" stroke-width="1.2" stroke-linecap="round" stroke-linejoin="round"></path><path d="M51.25 326V331.25H56.5" stroke="#122E2B" stroke-width="1.2" stroke-linecap="round" stroke-linejoin="round"></path><path d="M41.5 341.75H43C43.3978 341.75 43.7794 341.592 44.0607 341.311C44.342 341.029 44.5 340.648 44.5 340.25C44.5 339.852 44.342 339.471 44.0607 339.189C43.7794 338.908 43.3978 338.75 43 338.75H41.5V343.25" stroke="#122E2B" stroke-width="1.2" stroke-linecap="round" stroke-linejoin="round"></path><path d="M57.25 338.75H54.625V343.25" stroke="#122E2B" stroke-width="1.2" stroke-linecap="round" stroke-linejoin="round"></path><path d="M56.875 341.375H54.625" stroke="#122E2B" stroke-width="1.2" stroke-linecap="round" stroke-linejoin="round"></path><path d="M49 343.25C49.5967 343.25 50.169 343.013 50.591 342.591C51.0129 342.169 51.25 341.597 51.25 341C51.25 340.403 51.0129 339.831 50.591 339.409C50.169 338.987 49.5967 338.75 49 338.75H47.6875V343.25H49Z" stroke="#122E2B" stroke-width="1.2" stroke-linecap="round" stroke-linejoin="round"></path><path d="M86.32 329.204C85.324 329.204 84.532 328.76 84.172 328.064H84.112V329H82.852V319.604H84.172V323.324H84.232C84.604 322.628 85.36 322.184 86.356 322.184C88.072 322.184 89.224 323.48 89.224 325.676C89.224 327.896 88.072 329.204 86.32 329.204ZM84.172 325.676C84.172 327.14 84.868 327.98 86.032 327.98C87.184 327.98 87.832 327.2 87.832 325.676C87.832 324.188 87.184 323.408 86.032 323.408C84.868 323.408 84.172 324.224 84.172 325.676ZM93.6118 329.204C91.6798 329.204 90.2998 327.776 90.2998 325.688C90.2998 323.612 91.6798 322.184 93.6118 322.184C95.5438 322.184 96.9238 323.6 96.9238 325.688C96.9238 327.788 95.5318 329.204 93.6118 329.204ZM91.6918 325.688C91.6918 327.188 92.4718 328.016 93.6118 328.016C94.7518 328.016 95.5318 327.2 95.5318 325.688C95.5318 324.188 94.7638 323.36 93.6118 323.36C92.4718 323.36 91.6918 324.2 91.6918 325.688ZM100.861 329.204C99.0612 329.204 98.1012 328.448 98.0292 327.056H99.4092C99.4932 327.74 99.9372 328.112 100.897 328.112C101.857 328.112 102.313 327.752 102.313 327.14C102.313 326.696 102.037 326.456 101.329 326.324L100.129 326.084C98.8212 325.832 98.1372 325.184 98.1372 324.152C98.1372 322.94 99.1332 322.184 100.837 322.184C102.553 322.184 103.513 322.94 103.585 324.32H102.229C102.145 323.588 101.677 323.276 100.813 323.276C99.9612 323.276 99.4452 323.552 99.4452 324.08C99.4452 324.548 99.8172 324.752 100.813 324.968L101.773 325.172C103.069 325.448 103.645 326.012 103.645 327.068C103.645 328.388 102.697 329.204 100.861 329.204ZM106.959 329C105.987 329 105.543 328.52 105.543 327.5V323.564H104.571V322.388H105.543V320.78H106.863V322.388H108.171V323.564H106.863V327.236C106.863 327.596 107.007 327.764 107.343 327.764H108.195V329H106.959ZM112.414 329.204C110.482 329.204 109.102 327.776 109.102 325.688C109.102 323.612 110.482 322.184 112.414 322.184C114.346 322.184 115.726 323.6 115.726 325.688C115.726 327.788 114.334 329.204 112.414 329.204ZM110.494 325.688C110.494 327.188 111.274 328.016 112.414 328.016C113.554 328.016 114.334 327.2 114.334 325.688C114.334 324.188 113.566 323.36 112.414 323.36C111.274 323.36 110.494 324.2 110.494 325.688ZM117.168 329V322.388H118.416V323.324H118.476C118.872 322.652 119.652 322.184 120.672 322.184C122.1 322.184 122.892 323.012 122.892 324.5V329H121.572V324.932C121.572 323.912 121.14 323.42 120.24 323.42C119.136 323.42 118.5 324.164 118.5 325.46V329H117.168ZM129.175 330.848H123.799V330.08H129.175V330.848ZM133.247 329.204C131.171 329.204 129.899 328.136 129.791 326.252H131.231C131.339 327.416 132.035 327.908 133.247 327.908C134.471 327.908 135.275 327.308 135.275 326.324C135.275 325.112 134.507 324.776 133.307 324.776H132.239V323.528H133.391C134.483 323.528 135.047 323.18 135.047 322.112C135.047 321.224 134.411 320.708 133.331 320.708C132.119 320.708 131.483 321.284 131.423 322.292H129.971C130.067 320.468 131.327 319.4 133.331 319.4C135.335 319.4 136.535 320.408 136.535 321.992C136.535 323.072 136.019 323.84 135.047 324.116V324.164C136.163 324.404 136.763 325.124 136.763 326.36C136.763 328.076 135.383 329.204 133.247 329.204ZM142.595 329V326.876H137.927V325.532L142.271 319.604H143.951V325.652H145.223V326.876H143.951V329H142.595ZM139.283 325.652H142.595V321.188H142.547L139.283 325.604V325.652ZM146.428 329V327.656H147.88V329H146.428ZM149.704 331.604V322.388H150.964V323.324H151.024C151.396 322.628 152.176 322.184 153.22 322.184C154.924 322.184 156.076 323.492 156.076 325.7C156.076 327.908 154.924 329.204 153.208 329.204C152.212 329.204 151.456 328.76 151.096 328.064H151.036V331.604H149.704ZM151.036 325.712C151.036 327.164 151.72 327.98 152.896 327.98C154.048 327.98 154.684 327.2 154.684 325.724C154.684 324.188 154.048 323.408 152.896 323.408C151.72 323.408 151.036 324.248 151.036 325.712ZM160.129 329.204C158.377 329.204 157.225 327.896 157.225 325.676C157.225 323.48 158.377 322.184 160.093 322.184C161.089 322.184 161.845 322.628 162.217 323.324H162.277V319.604H163.597V329H162.337V328.064H162.277C161.917 328.76 161.125 329.204 160.129 329.204ZM158.617 325.676C158.617 327.2 159.265 327.98 160.417 327.98C161.581 327.98 162.277 327.14 162.277 325.676C162.277 324.224 161.581 323.408 160.417 323.408C159.265 323.408 158.617 324.188 158.617 325.676ZM165.981 321.104C165.981 320.084 166.437 319.604 167.457 319.604H168.705V320.756H167.793C167.457 320.756 167.313 320.936 167.313 321.284V322.388H168.729V323.564H167.313V329H165.981V323.564H165.021V322.388H165.981V321.104Z" fill="#122E2B"></path><path opacity="0.5" d="M84.376 349V342.1H82.48V341.164H83.476C84.232 341.164 84.472 340.78 84.472 340.06V339.604H85.372V349H84.376ZM87.5688 349V347.92H88.7088V349H87.5688ZM91.5123 349V342.1H89.6163V341.164H90.6123C91.3683 341.164 91.6083 340.78 91.6083 340.06V339.604H92.5083V349H91.5123ZM97.8215 349V339.604H99.4895L102.574 347.644H102.622L105.646 339.604H107.326V349H106.282V340.936H106.222L103.09 349H102.046L98.9255 340.972H98.8655V349H97.8215ZM115.181 344.104C116.321 344.356 116.885 345.136 116.885 346.3C116.885 348.052 115.685 349 113.429 349H109.745V339.604H113.429C115.517 339.604 116.609 340.384 116.609 342.04C116.609 343 116.141 343.78 115.181 344.056V344.104ZM110.789 347.956H113.429C115.025 347.956 115.757 347.368 115.757 346.3C115.757 345.148 114.977 344.668 113.429 344.668H110.789V347.956ZM110.789 343.696H113.429C114.989 343.696 115.481 343.216 115.481 342.04C115.481 341.152 114.953 340.648 113.429 340.648H110.789V343.696Z" fill="#122E2B"></path><rect x="246" y="306" width="214" height="58" rx="4" stroke="#EFF2F2" stroke-width="0.75"></rect><rect x="254" y="314" width="42" height="42" rx="4" fill="#E9EFE7"></rect><path d="M274.25 338.75V343.25H276.875" stroke="#122E2B" stroke-width="1.2" stroke-linecap="round" stroke-linejoin="round"></path><path d="M267.875 338.75L271.25 343.25" stroke="#122E2B" stroke-width="1.2" stroke-linecap="round" stroke-linejoin="round"></path><path d="M271.25 338.75L267.875 343.25" stroke="#122E2B" stroke-width="1.2" stroke-linecap="round" stroke-linejoin="round"></path><path d="M279.5 342.875C279.906 343.178 280.399 343.342 280.906 343.344C281.75 343.344 282.5 343.062 282.5 342.125C282.5 340.625 279.5 341.281 279.5 339.875C279.5 339.125 280.062 338.656 280.906 338.656C281.413 338.658 281.906 338.822 282.312 339.125" stroke="#122E2B" stroke-width="1.2" stroke-linecap="round" stroke-linejoin="round"></path><path d="M267.5 335V326.75C267.5 326.551 267.579 326.36 267.72 326.22C267.86 326.079 268.051 326 268.25 326H277.25L282.5 331.25V335" stroke="#122E2B" stroke-width="1.2" stroke-linecap="round" stroke-linejoin="round"></path><path d="M277.25 326V331.25H282.5" stroke="#122E2B" stroke-width="1.2" stroke-linecap="round" stroke-linejoin="round"></path><path d="M308.852 329V319.592H310.172V323.324H310.232C310.64 322.652 311.324 322.184 312.344 322.184C313.772 322.184 314.576 323.012 314.576 324.5V329H313.244V324.932C313.244 323.912 312.824 323.42 311.924 323.42C310.82 323.42 310.172 324.164 310.172 325.46V329H308.852ZM316.333 331.604V322.388H317.593V323.324H317.653C318.025 322.628 318.805 322.184 319.849 322.184C321.553 322.184 322.705 323.492 322.705 325.7C322.705 327.908 321.553 329.204 319.837 329.204C318.841 329.204 318.085 328.76 317.725 328.064H317.665V331.604H316.333ZM317.665 325.712C317.665 327.164 318.349 327.98 319.525 327.98C320.677 327.98 321.313 327.2 321.313 325.724C321.313 324.188 320.677 323.408 319.525 323.408C318.349 323.408 317.665 324.248 317.665 325.712ZM328.75 330.848H323.374V330.08H328.75V330.848ZM332.234 329.204C330.434 329.204 329.474 328.448 329.402 327.056H330.782C330.866 327.74 331.31 328.112 332.27 328.112C333.23 328.112 333.686 327.752 333.686 327.14C333.686 326.696 333.41 326.456 332.702 326.324L331.502 326.084C330.194 325.832 329.51 325.184 329.51 324.152C329.51 322.94 330.506 322.184 332.21 322.184C333.926 322.184 334.886 322.94 334.958 324.32H333.602C333.518 323.588 333.05 323.276 332.186 323.276C331.334 323.276 330.818 323.552 330.818 324.08C330.818 324.548 331.19 324.752 332.186 324.968L333.146 325.172C334.442 325.448 335.018 326.012 335.018 327.068C335.018 328.388 334.07 329.204 332.234 329.204ZM339.387 329.204C337.299 329.204 336.063 327.836 336.063 325.712C336.063 323.576 337.335 322.184 339.363 322.184C341.247 322.184 342.483 323.408 342.483 325.52C342.483 325.712 342.471 325.904 342.459 326.12H337.467C337.575 327.344 338.319 328.028 339.387 328.028C340.335 328.028 340.971 327.62 341.127 326.816H342.495C342.267 328.364 341.103 329.204 339.387 329.204ZM337.491 325.088H341.043C340.995 324.044 340.371 323.336 339.363 323.336C338.319 323.336 337.635 323.996 337.491 325.088ZM345.262 323.324C345.55 322.568 346.222 322.292 346.978 322.292H347.374V323.528H347.038C345.742 323.528 345.286 324.356 345.286 325.664V329H343.954V322.388H345.202V323.324H345.262ZM350.492 329L348.02 322.388H349.448L351.176 327.368H351.224L352.94 322.388H354.368L351.908 329H350.492ZM358.213 329.204C356.125 329.204 354.889 327.836 354.889 325.712C354.889 323.576 356.161 322.184 358.189 322.184C360.073 322.184 361.309 323.408 361.309 325.52C361.309 325.712 361.297 325.904 361.285 326.12H356.293C356.401 327.344 357.145 328.028 358.213 328.028C359.161 328.028 359.797 327.62 359.953 326.816H361.321C361.093 328.364 359.929 329.204 358.213 329.204ZM356.317 325.088H359.869C359.821 324.044 359.197 323.336 358.189 323.336C357.145 323.336 356.461 323.996 356.317 325.088ZM364.087 323.324C364.375 322.568 365.047 322.292 365.803 322.292H366.199V323.528H365.863C364.567 323.528 364.111 324.356 364.111 325.664V329H362.779V322.388H364.027V323.324H364.087ZM366.78 329V327.656H368.232V329H366.78ZM374.016 329L372.456 326.624L370.896 329H369.348L371.664 325.688L369.384 322.388H370.968L372.54 324.74L374.016 322.388H375.564L373.32 325.628L375.612 329H374.016ZM376.719 329V319.604H378.039V329H376.719ZM382.394 329.204C380.594 329.204 379.634 328.448 379.562 327.056H380.942C381.026 327.74 381.47 328.112 382.43 328.112C383.39 328.112 383.846 327.752 383.846 327.14C383.846 326.696 383.57 326.456 382.862 326.324L381.662 326.084C380.354 325.832 379.67 325.184 379.67 324.152C379.67 322.94 380.666 322.184 382.37 322.184C384.086 322.184 385.046 322.94 385.118 324.32H383.762C383.678 323.588 383.21 323.276 382.346 323.276C381.494 323.276 380.978 323.552 380.978 324.08C380.978 324.548 381.35 324.752 382.346 324.968L383.306 325.172C384.602 325.448 385.178 326.012 385.178 327.068C385.178 328.388 384.23 329.204 382.394 329.204Z" fill="#122E2B"></path><path opacity="0.5" d="M310.376 349V342.1H308.48V341.164H309.476C310.232 341.164 310.472 340.78 310.472 340.06V339.604H311.372V349H310.376ZM313.569 349V347.92H314.709V349H313.569ZM319.77 349.204C317.394 349.204 316.182 347.512 316.182 344.38C316.182 341.296 317.646 339.4 319.938 339.4C321.942 339.4 322.854 340.528 322.95 342.148H321.942C321.858 341.092 321.186 340.408 319.938 340.408C318.318 340.408 317.454 341.38 317.31 344.068H317.358C317.85 343.288 318.882 342.832 319.77 342.832C321.762 342.832 322.998 343.936 322.998 345.94C322.998 347.944 321.654 349.204 319.77 349.204ZM317.514 346C317.514 347.332 318.366 348.196 319.77 348.196C321.054 348.196 321.858 347.404 321.858 345.94C321.858 344.536 321.03 343.828 319.77 343.828C318.366 343.828 317.514 344.668 317.514 346ZM327.7 349V339.604H329.368L332.452 347.644H332.5L335.524 339.604H337.204V349H336.16V340.936H336.1L332.968 349H331.924L328.804 340.972H328.744V349H327.7ZM345.06 344.104C346.2 344.356 346.764 345.136 346.764 346.3C346.764 348.052 345.564 349 343.308 349H339.624V339.604H343.308C345.396 339.604 346.488 340.384 346.488 342.04C346.488 343 346.02 343.78 345.06 344.056V344.104ZM340.668 347.956H343.308C344.904 347.956 345.636 347.368 345.636 346.3C345.636 345.148 344.856 344.668 343.308 344.668H340.668V347.956ZM340.668 343.696H343.308C344.868 343.696 345.36 343.216 345.36 342.04C345.36 341.152 344.832 340.648 343.308 340.648H340.668V343.696Z" fill="#122E2B"></path></svg> 